<?xml version="1.0" encoding="UTF-8" standalone="no"?>
<!-- Generator: Adobe Illustrator 26.0.2, SVG Export Plug-In . SVG Version: 6.00 Build 0)  -->

<svg
   version="1.1"
   id="Layer_1"
   x="0px"
   y="0px"
   width="1400px"
   height="1400px"
   viewBox="0 0 1400 1400"
   style="enable-background:new 0 0 1400 1400;"
   xml:space="preserve"
   sodipodi:docname="ABF_Homepage_Baseball_2_Bundesliga_West_Logo_Neu.svg"
   inkscape:version="1.2.2 (732a01da63, 2022-12-09)"
   xmlns:inkscape="http://www.inkscape.org/namespaces/inkscape"
   xmlns:sodipodi="http://sodipodi.sourceforge.net/DTD/sodipodi-0.dtd"
   xmlns:xlink="http://www.w3.org/1999/xlink"
   xmlns="http://www.w3.org/2000/svg"
   xmlns:svg="http://www.w3.org/2000/svg"><defs
   id="defs664" /><sodipodi:namedview
   id="namedview662"
   pagecolor="#ffffff"
   bordercolor="#000000"
   borderopacity="0.25"
   inkscape:showpageshadow="2"
   inkscape:pageopacity="0.0"
   inkscape:pagecheckerboard="0"
   inkscape:deskcolor="#d1d1d1"
   showgrid="false"
   inkscape:zoom="0.85559921"
   inkscape:cx="621.78646"
   inkscape:cy="642.82434"
   inkscape:window-width="1920"
   inkscape:window-height="1027"
   inkscape:window-x="-8"
   inkscape:window-y="-8"
   inkscape:window-maximized="1"
   inkscape:current-layer="g659" />
<style
   type="text/css"
   id="style334">
	.st0{fill:#232937;stroke:#FFFFFF;stroke-width:22;stroke-miterlimit:9.9993;}
	.st1{fill:url(#svg_3_00000080907019024236885590000008140905534301555643_);}
	.st2{fill:url(#svg_23_00000081640124677018068880000007393990300839118489_);}
	.st3{fill:url(#svg_85_00000067231306779402730480000004946090732565456791_);}
	.st4{enable-background:new    ;}
	.st5{fill:#232937;}
	.st6{fill:#FFFFFF;stroke:#1D1D1B;stroke-width:3;}
	.st7{fill:#E42221;}
	.st8{fill:#FFFFFF;stroke:#1D1D1B;stroke-width:3;stroke-linejoin:round;}
	.st9{fill:#FFFFFF;}
	.st10{fill:#1D1D1B;}
	.st11{fill:none;stroke:#E42221;stroke-width:1.6;}
	.st12{fill:none;stroke:#E42221;stroke-width:1.3;}
	.st13{fill:none;stroke:#1D1D1B;stroke-width:3;}
	.st14{fill:url(#SVGID_00000162345714312946962910000017286822407669079178_);}
	.st15{fill:url(#SVGID_00000030477403433345899850000011369381686575085450_);}
	
		.st16{clip-path:url(#SVGID_00000123436356990916928980000010180142012823738302_);fill:url(#svg_22_00000165921223181235925500000001920630908370433722_);}
</style>
<g
   id="g659">
	<path
   id="svg_1"
   class="st0"
   d="M65.3,667.8L667.8,65.3c18-18,47.1-18,65.1,0l601.9,601.9c18,18,18,47.1,0,65.1l-602.4,602.4   c-18,18-47.1,18-65.1,0l-602-601.9C47.3,714.8,47.3,685.7,65.3,667.8z" />
	
		<linearGradient
   id="svg_3_00000170996889554632725650000014741426352777183401_"
   gradientUnits="userSpaceOnUse"
   x1="1348.8724"
   y1="825.9421"
   x2="1349.8724"
   y2="825.9393"
   gradientTransform="matrix(1197.2 0 0 -1197.3 -1614769.375 989608.4375)">
		<stop
   offset="0"
   style="stop-color:#FFFFFF;stop-opacity:0.97"
   id="stop337" />
		<stop
   offset="0.2"
   style="stop-color:#B71616;stop-opacity:0.9922"
   id="stop339" />
		<stop
   offset="0.5"
   style="stop-color:#000000;stop-opacity:0.9883"
   id="stop341" />
		<stop
   offset="0.8"
   style="stop-color:#9B1212;stop-opacity:0.9844"
   id="stop343" />
		<stop
   offset="1"
   style="stop-color:#FFFFFF;stop-opacity:0.97"
   id="stop345" />
	</linearGradient>
	<polygon
   id="svg_3"
   style="fill:url(#svg_3_00000170996889554632725650000014741426352777183401_);"
   points="1297.8,709.1    698.7,1308.2 100.6,710 699.7,110.9  " />
	
		<radialGradient
   id="svg_23_00000078736261296396875030000016250857503867987130_"
   cx="2069.8076"
   cy="7860.499"
   r="549.8301"
   gradientTransform="matrix(1.0018 0 0 -1 -1374.8832 8569.499)"
   gradientUnits="userSpaceOnUse">
		<stop
   offset="0"
   style="stop-color:#FFFFFF"
   id="stop349" />
		<stop
   offset="0.4471"
   style="stop-color:#FEFEFE"
   id="stop351" />
		<stop
   offset="0.6081"
   style="stop-color:#F6F6F6"
   id="stop353" />
		<stop
   offset="0.7229"
   style="stop-color:#EBEBEB"
   id="stop355" />
		<stop
   offset="0.8157"
   style="stop-color:#CCCCCC;stop-opacity:0.9961"
   id="stop357" />
		<stop
   offset="0.8646"
   style="stop-color:#BCBCBC;stop-opacity:0.9961"
   id="stop359" />
		<stop
   offset="0.8952"
   style="stop-color:#B2B2B2;stop-opacity:0.9961"
   id="stop361" />
	</radialGradient>
	<polygon
   id="svg_23"
   style="fill:url(#svg_23_00000078736261296396875030000016250857503867987130_);"
   points="1249.5,706.9    696.6,1258.8 147.8,711 700.7,159.2  " />
	
		<linearGradient
   id="svg_85_00000081645549131763352250000012600260896786688675_"
   gradientUnits="userSpaceOnUse"
   x1="8.483887e-03"
   y1="2550.0483"
   x2="8.483887e-03"
   y2="2550.0483"
   gradientTransform="matrix(1 0 0 -1 699.9915 2632.3481)">
		<stop
   offset="0"
   style="stop-color:#0B7EB1"
   id="stop365" />
		<stop
   offset="0.2745"
   style="stop-color:#0D7CAF"
   id="stop367" />
		<stop
   offset="0.4277"
   style="stop-color:#0974A7"
   id="stop369" />
		<stop
   offset="0.5511"
   style="stop-color:#03669B"
   id="stop371" />
		<stop
   offset="0.6586"
   style="stop-color:#00528A"
   id="stop373" />
		<stop
   offset="0.7548"
   style="stop-color:#1B3B6B"
   id="stop375" />
		<stop
   offset="0.8092"
   style="stop-color:#202F59"
   id="stop377" />
		<stop
   offset="1"
   style="stop-color:#0372A6"
   id="stop379" />
	</linearGradient>
	<path
   id="svg_85"
   style="fill:url(#svg_85_00000081645549131763352250000012600260896786688675_);"
   d="M700,82.3L700,82.3L700,82.3   z" />
	
	<g
   id="svg_4"
   transform="translate(-45.625544,-9.587)">
		<g
   id="svg_5">
			<rect
   id="svg_6"
   x="779.79999"
   y="350"
   class="st6"
   width="40.200001"
   height="232.39999" />
			<g
   id="svg_25">
				<rect
   id="svg_27"
   x="785.70001"
   y="356"
   class="st7"
   width="9.5"
   height="220.3" />
				<rect
   id="svg_29"
   x="804.59998"
   y="356"
   class="st7"
   width="9.5"
   height="220.3" />
			</g>
		</g>
		<polygon
   id="svg_30"
   class="st6"
   points="654.1,582.4 559.5,582.4 723.8,350 818.5,350 " />
		<g
   id="svg_31">
			<polygon
   id="svg_33"
   class="st7"
   points="598.8,576.1 571.3,576.1 727.1,355.6 754.6,355.6 " />
			<polygon
   id="svg_34"
   class="st7"
   points="653.6,576.1 626.1,576.1 781.9,355.6 809.4,355.6 " />
		</g>
		<path
   id="svg_35"
   class="st8"
   d="m 718.1,484.5 c 106.3,15.9 129.7,-44.8 102,-69.2 28.5,13 35.3,115.7 -95.3,112.7 -1.4,1.6 -6.7,-43.5 -6.7,-43.5 z" />
		<path
   id="svg_36"
   class="st7"
   d="m 730.6,493.1 c 80.4,4.3 91.8,-23.7 102,-38.5 -0.8,21 -14.1,65.2 -100.8,67.2 -1.4,1.5 -1.2,-28.7 -1.2,-28.7 z" />
		<path
   id="svg_37"
   class="st9"
   d="m 731.8,501.7 c 48.7,4.3 77.3,-12 87.8,-22.6 -7.4,16.3 -39.3,34.2 -87.5,33.8 -1.3,1.5 -0.3,-11.2 -0.3,-11.2 z" />
		<path
   id="svg_38"
   class="st10"
   d="m 734,478.1 c 3.6,0.2 31.4,3 45.4,3.3 -16.5,2.7 -28.1,2.3 -41.8,1.7 -1.3,-2 -3.6,-5 -3.6,-5 z" />
		<g
   id="svg_39">
			<path
   id="svg_40"
   class="st9"
   d="m 740.3,505 c 0,21.7 -17.8,39.3 -39.7,39.3 -21.9,0 -39.7,-17.6 -39.7,-39.3 0,-21.7 17.8,-39.3 39.7,-39.3 21.8,0 39.7,17.6 39.7,39.3 z" />
			<g
   id="svg_41">
				<path
   id="svg_43"
   class="st11"
   d="m 661.1,505.1 c 0,0 3.7,9.9 14.9,10.3 9.3,0.3 20.3,-5.3 25.7,-10.8 5.7,-5.7 8.5,-11.7 9.5,-17.1 1.1,-5.3 0,-12.9 -7.5,-21.2" />
				<path
   id="svg_44"
   class="st11"
   d="m 699.9,544.1 c 0,0 5.4,-9.3 15.5,-17.5 10.1,-8.2 17,-12 24,-15" />
				<g
   id="svg_45">
					<line
   id="svg_46"
   class="st12"
   x1="675.29999"
   y1="511.20001"
   x2="675.29999"
   y2="515.29999" />
					<line
   id="svg_47"
   class="st12"
   x1="678.59998"
   y1="511.20001"
   x2="679.5"
   y2="514.90002" />
					<line
   id="svg_48"
   class="st12"
   x1="682.59998"
   y1="510.70001"
   x2="683.5"
   y2="514.20001" />
					<line
   id="svg_49"
   class="st12"
   x1="684.59998"
   y1="514.5"
   x2="687"
   y2="516.70001" />
					<line
   id="svg_50"
   class="st12"
   x1="680.29999"
   y1="515"
   x2="682.79999"
   y2="517.70001" />
					<line
   id="svg_51"
   class="st12"
   x1="676.29999"
   y1="515.29999"
   x2="678.59998"
   y2="518.40002" />
					<line
   id="svg_52"
   class="st12"
   x1="673.09998"
   y1="515.29999"
   x2="675"
   y2="517.5" />
					<line
   id="svg_53"
   class="st12"
   x1="669.29999"
   y1="513.90002"
   x2="671.09998"
   y2="516.29999" />
					<line
   id="svg_54"
   class="st12"
   x1="666.20001"
   y1="511.89999"
   x2="666.59998"
   y2="514.5" />
					<line
   id="svg_55"
   class="st12"
   x1="663.59998"
   y1="508.89999"
   x2="663.70001"
   y2="511.39999" />
					<line
   id="svg_56"
   class="st12"
   x1="664.29999"
   y1="509.89999"
   x2="665.59998"
   y2="506" />
					<line
   id="svg_57"
   class="st12"
   x1="662.59998"
   y1="507.29999"
   x2="663.70001"
   y2="504.39999" />
					<line
   id="svg_58"
   class="st12"
   x1="668.09998"
   y1="509.39999"
   x2="668.09998"
   y2="513.20001" />
					<line
   id="svg_59"
   class="st12"
   x1="671.5"
   y1="510.70001"
   x2="671.70001"
   y2="514.5" />
					<line
   id="svg_60"
   class="st12"
   x1="687"
   y1="509.70001"
   x2="688"
   y2="513" />
					<line
   id="svg_61"
   class="st12"
   x1="688.70001"
   y1="513"
   x2="691.5"
   y2="515.5" />
					<line
   id="svg_62"
   class="st12"
   x1="691"
   y1="507.70001"
   x2="691.79999"
   y2="511.39999" />
					<line
   id="svg_63"
   class="st12"
   x1="694.79999"
   y1="506.10001"
   x2="696.20001"
   y2="508.89999" />
					<line
   id="svg_64"
   class="st12"
   x1="693"
   y1="511.20001"
   x2="695.40002"
   y2="513.70001" />
					<line
   id="svg_65"
   class="st12"
   x1="696.5"
   y1="509.10001"
   x2="699.79999"
   y2="510.70001" />
					<line
   id="svg_66"
   class="st12"
   x1="698"
   y1="503.89999"
   x2="699.09998"
   y2="506.70001" />
					<line
   id="svg_67"
   class="st12"
   x1="699.79999"
   y1="506.89999"
   x2="703"
   y2="508.29999" />
					<line
   id="svg_68"
   class="st12"
   x1="701.09998"
   y1="500.20001"
   x2="702.59998"
   y2="504.10001" />
					<line
   id="svg_69"
   class="st12"
   x1="703"
   y1="503.79999"
   x2="706.29999"
   y2="505.29999" />
					<line
   id="svg_70"
   class="st12"
   x1="706"
   y1="500.20001"
   x2="709.29999"
   y2="501.60001" />
					<line
   id="svg_71"
   class="st12"
   x1="703.79999"
   y1="497.5"
   x2="705.29999"
   y2="500.89999" />
					<line
   id="svg_72"
   class="st12"
   x1="705.79999"
   y1="494.5"
   x2="707.70001"
   y2="497.5" />
					<line
   id="svg_73"
   class="st12"
   x1="707.90002"
   y1="497.29999"
   x2="711.79999"
   y2="497.89999" />
					<line
   id="svg_74"
   class="st12"
   x1="706.90002"
   y1="491"
   x2="709.29999"
   y2="494.29999" />
					<line
   id="svg_75"
   class="st12"
   x1="709.90002"
   y1="493.5"
   x2="713.29999"
   y2="493.79999" />
					<line
   id="svg_76"
   class="st12"
   x1="707.90002"
   y1="487.39999"
   x2="710.79999"
   y2="490.60001" />
					<line
   id="svg_77"
   class="st12"
   x1="711"
   y1="489.70001"
   x2="714.59998"
   y2="489.79999" />
					<line
   id="svg_78"
   class="st12"
   x1="711.79999"
   y1="486.29999"
   x2="715.29999"
   y2="485.79999" />
					<line
   id="svg_79"
   class="st12"
   x1="708.59998"
   y1="484.29999"
   x2="711.40002"
   y2="487.5" />
					<line
   id="svg_80"
   class="st12"
   x1="711.59998"
   y1="482.89999"
   x2="714.59998"
   y2="481" />
					<line
   id="svg_81"
   class="st12"
   x1="709.09998"
   y1="481"
   x2="711.59998"
   y2="483.20001" />
					<line
   id="svg_82"
   class="st12"
   x1="711.20001"
   y1="479.10001"
   x2="713.90002"
   y2="476.39999" />
					<line
   id="svg_83"
   class="st12"
   x1="708.29999"
   y1="477.79999"
   x2="711.20001"
   y2="479.39999" />
					<line
   id="svg_84"
   class="st12"
   x1="710.29999"
   y1="475.70001"
   x2="712.5"
   y2="473.39999" />
					<line
   id="svg_86"
   class="st12"
   x1="707.09998"
   y1="474.79999"
   x2="710.40002"
   y2="476.60001" />
					<line
   id="svg_87"
   class="st12"
   x1="708.79999"
   y1="472.79999"
   x2="710.79999"
   y2="469.79999" />
					<line
   id="svg_88"
   class="st12"
   x1="705.70001"
   y1="471.89999"
   x2="709.29999"
   y2="473.70001" />
					<line
   id="svg_89"
   class="st12"
   x1="707.90002"
   y1="468.20001"
   x2="706.90002"
   y2="469.89999" />
					<line
   id="svg_92"
   class="st12"
   x1="704"
   y1="469.29999"
   x2="707.70001"
   y2="471" />
					<line
   id="svg_93"
   class="st12"
   x1="733.40002"
   y1="510"
   x2="735.29999"
   y2="513" />
					<line
   id="svg_94"
   class="st12"
   x1="736.29999"
   y1="513"
   x2="735.29999"
   y2="516.40002" />
					<line
   id="svg_95"
   class="st12"
   x1="730.79999"
   y1="512.20001"
   x2="732.40002"
   y2="514.5" />
					<line
   id="svg_97"
   class="st12"
   x1="733.20001"
   y1="514.59998"
   x2="732.90002"
   y2="518.09998" />
					<line
   id="svg_98"
   class="st12"
   x1="729.40002"
   y1="516.70001"
   x2="729.59998"
   y2="520.29999" />
					<line
   id="svg_99"
   class="st12"
   x1="726.29999"
   y1="514.90002"
   x2="728.20001"
   y2="516.70001" />
					<line
   id="svg_100"
   class="st12"
   x1="726.40002"
   y1="518.29999"
   x2="726.40002"
   y2="522.59998" />
					<line
   id="svg_101"
   class="st12"
   x1="723.5"
   y1="520.20001"
   x2="724"
   y2="524.40002" />
					<line
   id="svg_102"
   class="st12"
   x1="719.5"
   y1="519.29999"
   x2="721.40002"
   y2="521.29999" />
					<line
   id="svg_103"
   class="st12"
   x1="722.59998"
   y1="516.70001"
   x2="724.79999"
   y2="519.09998" />
					<line
   id="svg_104"
   class="st12"
   x1="720.20001"
   y1="522.90002"
   x2="721.40002"
   y2="526.40002" />
					<line
   id="svg_105"
   class="st12"
   x1="716.40002"
   y1="521.59998"
   x2="718.59998"
   y2="523.90002" />
					<line
   id="svg_106"
   class="st12"
   x1="717.5"
   y1="524.70001"
   x2="718.90002"
   y2="528.40002" />
					<line
   id="svg_107"
   class="st12"
   x1="713.09998"
   y1="524.09998"
   x2="716"
   y2="525.59998" />
					<line
   id="svg_108"
   class="st12"
   x1="714.59998"
   y1="527.09998"
   x2="716.90002"
   y2="530.40002" />
					<line
   id="svg_109"
   class="st12"
   x1="710.09998"
   y1="526.90002"
   x2="713.09998"
   y2="527.90002" />
					<line
   id="svg_110"
   class="st12"
   x1="711.90002"
   y1="529.5"
   x2="714.20001"
   y2="532.90002" />
					<line
   id="svg_111"
   class="st12"
   x1="707.40002"
   y1="529.5"
   x2="710.79999"
   y2="530.5" />
					<line
   id="svg_112"
   class="st12"
   x1="709.29999"
   y1="532.09998"
   x2="711.79999"
   y2="534.90002" />
					<line
   id="svg_113"
   class="st12"
   x1="704.59998"
   y1="532.59998"
   x2="708.09998"
   y2="533" />
					<line
   id="svg_114"
   class="st12"
   x1="706.29999"
   y1="535.5"
   x2="709.29999"
   y2="536.59998" />
					<line
   id="svg_115"
   class="st12"
   x1="702.20001"
   y1="535.5"
   x2="705.79999"
   y2="535.59998" />
					<line
   id="svg_116"
   class="st12"
   x1="704.20001"
   y1="538.09998"
   x2="707.70001"
   y2="539.29999" />
					<line
   id="svg_117"
   class="st12"
   x1="699.79999"
   y1="538.70001"
   x2="704"
   y2="538.70001" />
					<line
   id="svg_118"
   class="st12"
   x1="697.79999"
   y1="541.20001"
   x2="702"
   y2="541.29999" />
					<line
   id="svg_119"
   class="st12"
   x1="702.5"
   y1="540.70001"
   x2="705.59998"
   y2="541.09998" />
				</g>
				<g
   id="svg_120">
					<path
   id="svg_121"
   class="st7"
   d="m 704.8,469.4 c 0,0.5 -0.4,0.9 -0.9,0.9 -0.5,0 -0.9,-0.4 -0.9,-0.9 0,-0.5 0.4,-0.9 0.9,-0.9 0.5,0 0.9,0.4 0.9,0.9 z" />
					<path
   id="svg_122"
   class="st7"
   d="m 706.6,472 c 0,0.5 -0.4,0.9 -0.9,0.9 -0.5,0 -0.9,-0.4 -0.9,-0.9 0,-0.5 0.4,-0.9 0.9,-0.9 0.5,0 0.9,0.5 0.9,0.9 z" />
					<path
   id="svg_123"
   class="st7"
   d="m 711.5,469.8 c 0,0.5 -0.4,0.9 -0.9,0.9 -0.5,0 -0.9,-0.4 -0.9,-0.9 0,-0.5 0.4,-0.9 0.9,-0.9 0.5,0 0.9,0.4 0.9,0.9 z" />
					<path
   id="svg_124"
   class="st7"
   d="m 708.7,468.3 c 0,0.4 -0.3,0.8 -0.8,0.8 -0.4,0 -0.8,-0.3 -0.8,-0.8 0,-0.4 0.3,-0.8 0.8,-0.8 0.5,0.2 0.8,0.4 0.8,0.8 z" />
					<path
   id="svg_125"
   class="st7"
   d="m 713.4,473.3 c 0,0.5 -0.4,0.9 -0.9,0.9 -0.5,0 -0.9,-0.4 -0.9,-0.9 0,-0.5 0.4,-0.9 0.9,-0.9 0.5,0 0.9,0.4 0.9,0.9 z" />
					<path
   id="svg_126"
   class="st7"
   d="m 708,474.8 c 0,0.5 -0.4,0.9 -0.9,0.9 -0.5,0 -0.9,-0.4 -0.9,-0.9 0,-0.5 0.4,-0.9 0.9,-0.9 0.5,0 0.9,0.4 0.9,0.9 z" />
					<path
   id="svg_127"
   class="st7"
   d="m 714.7,476.4 c 0,0.5 -0.4,0.9 -0.9,0.9 -0.5,0 -0.9,-0.4 -0.9,-0.9 0,-0.5 0.4,-0.9 0.9,-0.9 0.5,0 0.9,0.4 0.9,0.9 z" />
					<path
   id="svg_128"
   class="st7"
   d="m 734.2,510 c 0,0.5 -0.4,0.9 -0.9,0.9 -0.5,0 -0.9,-0.4 -0.9,-0.9 0,-0.5 0.4,-0.9 0.9,-0.9 0.5,0 0.9,0.4 0.9,0.9 z" />
					<path
   id="svg_129"
   class="st7"
   d="m 731.7,512.2 c 0,0.5 -0.4,0.9 -0.9,0.9 -0.5,0 -0.9,-0.4 -0.9,-0.9 0,-0.5 0.4,-0.9 0.9,-0.9 0.5,0.1 0.9,0.5 0.9,0.9 z" />
					<path
   id="svg_130"
   class="st7"
   d="m 733.6,518.3 c 0,0.5 -0.4,0.9 -0.9,0.9 -0.5,0 -0.9,-0.4 -0.9,-0.9 0,-0.5 0.4,-0.9 0.9,-0.9 0.5,0.1 0.9,0.5 0.9,0.9 z" />
					<path
   id="svg_131"
   class="st7"
   d="m 736.1,516.4 c 0,0.5 -0.4,0.9 -0.9,0.9 -0.5,0 -0.9,-0.4 -0.9,-0.9 0,-0.5 0.4,-0.9 0.9,-0.9 0.5,0.2 0.9,0.5 0.9,0.9 z" />
					<path
   id="svg_132"
   class="st7"
   d="m 730.6,520.4 c 0,0.5 -0.4,0.9 -0.9,0.9 -0.5,0 -0.9,-0.4 -0.9,-0.9 0,-0.5 0.4,-0.9 0.9,-0.9 0.5,0.2 0.9,0.5 0.9,0.9 z" />
					<path
   id="svg_133"
   class="st7"
   d="m 727.2,514.9 c 0,0.5 -0.4,0.9 -0.9,0.9 -0.5,0 -0.9,-0.4 -0.9,-0.9 0,-0.5 0.4,-0.9 0.9,-0.9 0.5,0 0.9,0.4 0.9,0.9 z" />
					<path
   id="svg_134"
   class="st7"
   d="m 723.5,516.7 c 0,0.5 -0.4,0.9 -0.9,0.9 -0.5,0 -0.9,-0.4 -0.9,-0.9 0,-0.5 0.4,-0.9 0.9,-0.9 0.5,0.2 0.9,0.5 0.9,0.9 z" />
					<path
   id="svg_135"
   class="st7"
   d="m 720.3,519.3 c 0,0.5 -0.4,0.9 -0.9,0.9 -0.5,0 -0.9,-0.4 -0.9,-0.9 0,-0.5 0.4,-0.9 0.9,-0.9 0.5,0 0.9,0.4 0.9,0.9 z" />
					<path
   id="svg_136"
   class="st7"
   d="m 717.2,521.5 c 0,0.5 -0.4,0.9 -0.9,0.9 -0.5,0 -0.9,-0.4 -0.9,-0.9 0,-0.5 0.4,-0.9 0.9,-0.9 0.5,0 0.9,0.4 0.9,0.9 z" />
					<path
   id="svg_137"
   class="st7"
   d="m 714.1,524 c 0,0.5 -0.4,0.9 -0.9,0.9 -0.5,0 -0.9,-0.4 -0.9,-0.9 0,-0.5 0.4,-0.9 0.9,-0.9 0.5,0.1 0.9,0.5 0.9,0.9 z" />
					<path
   id="svg_138"
   class="st7"
   d="m 727.3,522.6 c 0,0.5 -0.4,0.9 -0.9,0.9 -0.5,0 -0.9,-0.4 -0.9,-0.9 0,-0.5 0.4,-0.9 0.9,-0.9 0.5,0 0.9,0.4 0.9,0.9 z" />
					<path
   id="svg_139"
   class="st7"
   d="m 724.8,524.2 c 0,0.5 -0.4,0.9 -0.9,0.9 -0.5,0 -0.9,-0.4 -0.9,-0.9 0,-0.5 0.4,-0.9 0.9,-0.9 0.6,0.2 0.9,0.5 0.9,0.9 z" />
					<path
   id="svg_140"
   class="st7"
   d="m 722.2,526.6 c 0,0.5 -0.4,0.9 -0.9,0.9 -0.5,0 -0.9,-0.4 -0.9,-0.9 0,-0.5 0.4,-0.9 0.9,-0.9 0.6,0.2 0.9,0.4 0.9,0.9 z" />
					<path
   id="svg_141"
   class="st7"
   d="m 719.7,528.4 c 0,0.5 -0.4,0.9 -0.9,0.9 -0.5,0 -0.9,-0.4 -0.9,-0.9 0,-0.5 0.4,-0.9 0.9,-0.9 0.5,0 0.9,0.5 0.9,0.9 z" />
					<path
   id="svg_142"
   class="st7"
   d="m 717.7,530.4 c 0,0.5 -0.4,0.9 -0.9,0.9 -0.5,0 -0.9,-0.4 -0.9,-0.9 0,-0.5 0.4,-0.9 0.9,-0.9 0.5,0 0.9,0.5 0.9,0.9 z" />
					<path
   id="svg_143"
   class="st7"
   d="m 715,532.9 c 0,0.5 -0.4,0.9 -0.9,0.9 -0.5,0 -0.9,-0.4 -0.9,-0.9 0,-0.5 0.4,-0.9 0.9,-0.9 0.5,0 0.9,0.4 0.9,0.9 z" />
					<path
   id="svg_144"
   class="st7"
   d="m 710.9,526.9 c 0,0.5 -0.4,0.9 -0.9,0.9 -0.5,0 -0.9,-0.4 -0.9,-0.9 0,-0.5 0.4,-0.9 0.9,-0.9 0.5,0 0.9,0.4 0.9,0.9 z" />
					<path
   id="svg_145"
   class="st7"
   d="m 708.3,529.5 c 0,0.5 -0.4,0.9 -0.9,0.9 -0.5,0 -0.9,-0.4 -0.9,-0.9 0,-0.5 0.4,-0.9 0.9,-0.9 0.5,0 0.9,0.4 0.9,0.9 z" />
					<path
   id="svg_146"
   class="st7"
   d="m 708.3,529.5 c 0,0.5 -0.4,0.9 -0.9,0.9 -0.5,0 -0.9,-0.4 -0.9,-0.9 0,-0.5 0.4,-0.9 0.9,-0.9 0.5,0 0.9,0.4 0.9,0.9 z" />
					<path
   id="svg_147"
   class="st7"
   d="m 705.3,532.5 c 0,0.5 -0.4,0.9 -0.9,0.9 -0.5,0 -0.9,-0.4 -0.9,-0.9 0,-0.5 0.4,-0.9 0.9,-0.9 0.5,0 0.9,0.4 0.9,0.9 z" />
					<path
   id="svg_148"
   class="st7"
   d="m 702.9,535.5 c 0,0.5 -0.4,0.9 -0.9,0.9 -0.5,0 -0.9,-0.4 -0.9,-0.9 0,-0.5 0.4,-0.9 0.9,-0.9 0.5,0 0.9,0.4 0.9,0.9 z" />
					<path
   id="svg_149"
   class="st7"
   d="m 700.7,538.5 c 0,0.5 -0.4,0.9 -0.9,0.9 -0.5,0 -0.9,-0.4 -0.9,-0.9 0,-0.5 0.4,-0.9 0.9,-0.9 0.5,0 0.9,0.5 0.9,0.9 z" />
					<path
   id="svg_150"
   class="st7"
   d="m 712.6,534.9 c 0,0.5 -0.4,0.9 -0.9,0.9 -0.5,0 -0.9,-0.4 -0.9,-0.9 0,-0.5 0.4,-0.9 0.9,-0.9 0.5,0 0.9,0.4 0.9,0.9 z" />
					<path
   id="svg_151"
   class="st7"
   d="m 710.2,536.7 c 0,0.5 -0.4,0.9 -0.9,0.9 -0.5,0 -0.9,-0.4 -0.9,-0.9 0,-0.5 0.4,-0.9 0.9,-0.9 0.5,0 0.9,0.4 0.9,0.9 z" />
					<path
   id="svg_152"
   class="st7"
   d="m 708.6,539.4 c 0,0.5 -0.4,0.9 -0.9,0.9 -0.5,0 -0.9,-0.4 -0.9,-0.9 0,-0.5 0.4,-0.9 0.9,-0.9 0.5,0 0.9,0.4 0.9,0.9 z" />
					<path
   id="svg_153"
   class="st7"
   d="m 706.8,541.2 c 0,0.5 -0.4,0.9 -0.9,0.9 -0.5,0 -0.9,-0.4 -0.9,-0.9 0,-0.5 0.4,-0.9 0.9,-0.9 0.6,0 0.9,0.4 0.9,0.9 z" />
					<path
   id="svg_154"
   class="st7"
   d="m 698.7,541.3 c 0,0.5 -0.4,0.9 -0.9,0.9 -0.5,0 -0.9,-0.4 -0.9,-0.9 0,-0.5 0.4,-0.9 0.9,-0.9 0.5,0 0.9,0.4 0.9,0.9 z" />
					<path
   id="svg_155"
   class="st7"
   d="m 709.2,477.8 c 0,0.5 -0.4,0.9 -0.9,0.9 -0.5,0 -0.9,-0.4 -0.9,-0.9 0,-0.5 0.4,-0.9 0.9,-0.9 0.5,0 0.9,0.4 0.9,0.9 z" />
					<path
   id="svg_156"
   class="st7"
   d="m 709.9,480.7 c 0,0.5 -0.4,0.9 -0.9,0.9 -0.5,0 -0.9,-0.4 -0.9,-0.9 0,-0.5 0.4,-0.9 0.9,-0.9 0.5,0.1 0.9,0.4 0.9,0.9 z" />
					<path
   id="svg_157"
   class="st7"
   d="m 715.5,481 c 0,0.5 -0.4,0.9 -0.9,0.9 -0.5,0 -0.9,-0.4 -0.9,-0.9 0,-0.5 0.4,-0.9 0.9,-0.9 0.6,0.1 0.9,0.5 0.9,0.9 z" />
					<path
   id="svg_158"
   class="st7"
   d="m 716,485.8 c 0,0.5 -0.4,0.9 -0.9,0.9 -0.5,0 -0.9,-0.4 -0.9,-0.9 0,-0.5 0.4,-0.9 0.9,-0.9 0.5,0 0.9,0.4 0.9,0.9 z" />
					<path
   id="svg_159"
   class="st7"
   d="m 715.5,489.8 c 0,0.5 -0.4,0.9 -0.9,0.9 -0.5,0 -0.9,-0.4 -0.9,-0.9 0,-0.5 0.4,-0.9 0.9,-0.9 0.5,0 0.9,0.4 0.9,0.9 z" />
					<path
   id="svg_160"
   class="st7"
   d="m 709.4,484.3 c 0,0.5 -0.4,0.9 -0.9,0.9 -0.5,0 -0.9,-0.4 -0.9,-0.9 0,-0.5 0.4,-0.9 0.9,-0.9 0.5,0 0.9,0.5 0.9,0.9 z" />
					<path
   id="svg_161"
   class="st7"
   d="m 708.8,487.4 c 0,0.5 -0.4,0.9 -0.9,0.9 -0.5,0 -0.9,-0.4 -0.9,-0.9 0,-0.5 0.4,-0.9 0.9,-0.9 0.5,0.1 0.9,0.5 0.9,0.9 z" />
					<path
   id="svg_162"
   class="st7"
   d="m 707.8,491 c 0,0.5 -0.4,0.9 -0.9,0.9 -0.5,0 -0.9,-0.4 -0.9,-0.9 0,-0.5 0.4,-0.9 0.9,-0.9 0.5,0 0.9,0.4 0.9,0.9 z" />
					<path
   id="svg_163"
   class="st7"
   d="m 714.2,493.8 c 0,0.5 -0.4,0.9 -0.9,0.9 -0.5,0 -0.9,-0.4 -0.9,-0.9 0,-0.5 0.4,-0.9 0.9,-0.9 0.5,0.1 0.9,0.4 0.9,0.9 z" />
					<path
   id="svg_164"
   class="st7"
   d="m 712.5,497.9 c 0,0.5 -0.4,0.9 -0.9,0.9 -0.5,0 -0.9,-0.4 -0.9,-0.9 0,-0.5 0.4,-0.9 0.9,-0.9 0.5,0 0.9,0.4 0.9,0.9 z" />
					<path
   id="svg_165"
   class="st7"
   d="m 710.2,501.6 c 0,0.5 -0.4,0.9 -0.9,0.9 -0.5,0 -0.9,-0.4 -0.9,-0.9 0,-0.5 0.4,-0.9 0.9,-0.9 0.5,0 0.9,0.4 0.9,0.9 z" />
					<path
   id="svg_166"
   class="st7"
   d="m 706.6,494.5 c 0,0.5 -0.4,0.9 -0.9,0.9 -0.5,0 -0.9,-0.4 -0.9,-0.9 0,-0.5 0.4,-0.9 0.9,-0.9 0.5,0.2 0.9,0.4 0.9,0.9 z" />
					<path
   id="svg_167"
   class="st7"
   d="m 704.5,497.3 c 0,0.5 -0.4,0.9 -0.9,0.9 -0.5,0 -0.9,-0.4 -0.9,-0.9 0,-0.5 0.4,-0.9 0.9,-0.9 0.5,0 0.9,0.4 0.9,0.9 z" />
					<path
   id="svg_168"
   class="st7"
   d="m 702,500.4 c 0,0.5 -0.4,0.9 -0.9,0.9 -0.5,0 -0.9,-0.4 -0.9,-0.9 0,-0.5 0.4,-0.9 0.9,-0.9 0.6,0.2 0.9,0.5 0.9,0.9 z" />
					<path
   id="svg_169"
   class="st7"
   d="m 707.1,505.2 c 0,0.5 -0.4,0.9 -0.9,0.9 -0.5,0 -0.9,-0.4 -0.9,-0.9 0,-0.5 0.4,-0.9 0.9,-0.9 0.6,0 0.9,0.4 0.9,0.9 z" />
					<path
   id="svg_170"
   class="st7"
   d="m 703.9,508.3 c 0,0.5 -0.4,0.9 -0.9,0.9 -0.5,0 -0.9,-0.4 -0.9,-0.9 0,-0.5 0.4,-0.9 0.9,-0.9 0.5,0.2 0.9,0.5 0.9,0.9 z" />
					<path
   id="svg_171"
   class="st7"
   d="m 698.9,503.8 c 0,0.5 -0.4,0.9 -0.9,0.9 -0.5,0 -0.9,-0.4 -0.9,-0.9 0,-0.5 0.4,-0.9 0.9,-0.9 0.5,0 0.9,0.4 0.9,0.9 z" />
					<path
   id="svg_172"
   class="st7"
   d="m 695.7,505.9 c 0,0.5 -0.4,0.9 -0.9,0.9 -0.5,0 -0.9,-0.4 -0.9,-0.9 0,-0.5 0.4,-0.9 0.9,-0.9 0.5,0.1 0.9,0.4 0.9,0.9 z" />
					<path
   id="svg_173"
   class="st7"
   d="m 700.6,510.6 c 0,0.5 -0.4,0.9 -0.9,0.9 -0.5,0 -0.9,-0.4 -0.9,-0.9 0,-0.5 0.4,-0.9 0.9,-0.9 0.5,0 0.9,0.4 0.9,0.9 z" />
					<path
   id="svg_174"
   class="st7"
   d="m 696.6,513.9 c 0,0.5 -0.4,0.9 -0.9,0.9 -0.5,0 -0.9,-0.4 -0.9,-0.9 0,-0.5 0.4,-0.9 0.9,-0.9 0.5,0 0.9,0.4 0.9,0.9 z" />
					<path
   id="svg_175"
   class="st7"
   d="m 691.7,507.3 c 0,0.5 -0.4,0.9 -0.9,0.9 -0.5,0 -0.9,-0.4 -0.9,-0.9 0,-0.5 0.4,-0.9 0.9,-0.9 0.6,0.1 0.9,0.5 0.9,0.9 z" />
					<path
   id="svg_176"
   class="st7"
   d="m 687.7,509.2 c 0,0.5 -0.4,0.9 -0.9,0.9 -0.5,0 -0.9,-0.4 -0.9,-0.9 0,-0.5 0.4,-0.9 0.9,-0.9 0.5,0 0.9,0.4 0.9,0.9 z" />
					<path
   id="svg_177"
   class="st7"
   d="m 688.2,516.8 c 0,0.5 -0.4,0.9 -0.9,0.9 -0.5,0 -0.9,-0.4 -0.9,-0.9 0,-0.5 0.4,-0.9 0.9,-0.9 0.5,0.1 0.9,0.4 0.9,0.9 z" />
					<path
   id="svg_178"
   class="st7"
   d="m 684,518 c 0,0.5 -0.4,0.9 -0.9,0.9 -0.5,0 -0.9,-0.4 -0.9,-0.9 0,-0.5 0.4,-0.9 0.9,-0.9 0.6,0 0.9,0.4 0.9,0.9 z" />
					<path
   id="svg_179"
   class="st7"
   d="m 683.4,510.6 c 0,0.5 -0.4,0.9 -0.9,0.9 -0.5,0 -0.9,-0.4 -0.9,-0.9 0,-0.5 0.4,-0.9 0.9,-0.9 0.5,0 0.9,0.4 0.9,0.9 z" />
					<path
   id="svg_180"
   class="st7"
   d="m 679.5,511.2 c 0,0.5 -0.4,0.9 -0.9,0.9 -0.5,0 -0.9,-0.4 -0.9,-0.9 0,-0.5 0.4,-0.9 0.9,-0.9 0.5,0 0.9,0.4 0.9,0.9 z" />
					<path
   id="svg_181"
   class="st7"
   d="m 676.2,511.4 c 0,0.5 -0.4,0.9 -0.9,0.9 -0.5,0 -0.9,-0.4 -0.9,-0.9 0,-0.5 0.4,-0.9 0.9,-0.9 0.5,0 0.9,0.4 0.9,0.9 z" />
					<path
   id="svg_182"
   class="st7"
   d="m 672.4,510.6 c 0,0.5 -0.4,0.9 -0.9,0.9 -0.5,0 -0.9,-0.4 -0.9,-0.9 0,-0.5 0.4,-0.9 0.9,-0.9 0.5,0 0.9,0.4 0.9,0.9 z" />
					<path
   id="svg_183"
   class="st7"
   d="m 672.1,516.7 c 0,0.5 -0.4,0.9 -0.9,0.9 -0.5,0 -0.9,-0.4 -0.9,-0.9 0,-0.5 0.4,-0.9 0.9,-0.9 0.5,0 0.9,0.4 0.9,0.9 z" />
					<path
   id="svg_184"
   class="st7"
   d="m 667.5,514.5 c 0,0.5 -0.4,0.9 -0.9,0.9 -0.5,0 -0.9,-0.4 -0.9,-0.9 0,-0.5 0.4,-0.9 0.9,-0.9 0.6,0.1 0.9,0.4 0.9,0.9 z" />
					<path
   id="svg_185"
   class="st7"
   d="m 668.9,509.2 c 0,0.5 -0.4,0.9 -0.9,0.9 -0.5,0 -0.9,-0.4 -0.9,-0.9 0,-0.5 0.4,-0.9 0.9,-0.9 0.5,0 0.9,0.4 0.9,0.9 z" />
					<path
   id="svg_186"
   class="st7"
   d="m 666.7,505.8 c 0,0.5 -0.4,0.9 -0.9,0.9 -0.5,0 -0.9,-0.4 -0.9,-0.9 0,-0.5 0.4,-0.9 0.9,-0.9 0.5,0.1 0.9,0.5 0.9,0.9 z" />
					<path
   id="svg_187"
   class="st7"
   d="m 664.5,511.7 c 0,0.5 -0.4,0.9 -0.9,0.9 -0.5,0 -0.9,-0.4 -0.9,-0.9 0,-0.5 0.4,-0.9 0.9,-0.9 0.5,0.1 0.9,0.5 0.9,0.9 z" />
					<path
   id="svg_188"
   class="st7"
   d="m 664.8,503.9 c 0,0.5 -0.4,0.9 -0.9,0.9 -0.5,0 -0.9,-0.4 -0.9,-0.9 0,-0.5 0.4,-0.9 0.9,-0.9 0.5,0 0.9,0.5 0.9,0.9 z" />
					<path
   id="svg_189"
   class="st7"
   d="m 676,517.7 c 0,0.5 -0.4,0.9 -0.9,0.9 -0.5,0 -0.9,-0.4 -0.9,-0.9 0,-0.5 0.4,-0.9 0.9,-0.9 0.5,0 0.9,0.4 0.9,0.9 z" />
					<path
   id="svg_190"
   class="st7"
   d="m 679.4,518.3 c 0,0.5 -0.4,0.9 -0.9,0.9 -0.5,0 -0.9,-0.4 -0.9,-0.9 0,-0.5 0.4,-0.9 0.9,-0.9 0.5,0 0.9,0.5 0.9,0.9 z" />
					<path
   id="svg_191"
   class="st7"
   d="m 692.2,515.6 c 0,0.5 -0.4,0.9 -0.9,0.9 -0.5,0 -0.9,-0.4 -0.9,-0.9 0,-0.5 0.4,-0.9 0.9,-0.9 0.5,0 0.9,0.4 0.9,0.9 z" />
				</g>
			</g>
			<path
   id="svg_192"
   class="st13"
   d="m 740.3,505 c 0,21.7 -17.8,39.3 -39.7,39.3 -21.9,0 -39.7,-17.6 -39.7,-39.3 0,-21.7 17.8,-39.3 39.7,-39.3 21.8,0 39.7,17.6 39.7,39.3 z" />
		</g>
		<path
   id="svg_193"
   class="st10"
   d="m 727.7,537.4 c 12.1,-0.8 42.4,-6.6 50.8,-11.7 -14.3,3.3 -34.5,6.6 -44.5,6 -1.8,2.3 -6.3,5.7 -6.3,5.7 z" />
	</g>
	
	
	<g
   id="svg_7">
		<g
   id="svg_8">
			<g
   id="svg_9">
				<g
   id="svg_10">
					<g
   id="svg_11">
						<g
   id="svg_12">
							<g
   id="svg_13">
								
									<linearGradient
   id="SVGID_00000176024126523866879570000009290493633429528466_"
   gradientUnits="userSpaceOnUse"
   x1="1348.7288"
   y1="826.3997"
   x2="1349.7217"
   y2="827.3928"
   gradientTransform="matrix(603.3 0 0 -603.2 -813589.875 499192)">
									<stop
   offset="0"
   style="stop-color:#328D36;stop-opacity:0"
   id="stop603" />
									<stop
   offset="0.2411"
   style="stop-color:#42953D"
   id="stop605" />
									<stop
   offset="0.5081"
   style="stop-color:#FFFFFF"
   id="stop607" />
									<stop
   offset="0.7625"
   style="stop-color:#D92039"
   id="stop609" />
									<stop
   offset="1"
   style="stop-color:#D60F28;stop-opacity:0"
   id="stop611" />
								</linearGradient>
								<polygon
   id="SVGID_6_"
   style="fill:url(#SVGID_00000176024126523866879570000009290493633429528466_);"
   points="          693.7,105.1 699.4,110.8 101.7,711.2 96.1,705.6         " />
							</g>
							<g
   id="svg_14">
								<g
   id="svg_15">
									<g
   id="svg_16">
										<g
   id="svg_17">
											<g
   id="svg_18">
												<g
   id="svg_19">
													<g
   id="svg_20">
														<g
   id="g644">
															<g
   id="g624">
																
																	<linearGradient
   id="SVGID_00000078014350828270370800000000638907061879612862_"
   gradientUnits="userSpaceOnUse"
   x1="246.3848"
   y1="-590.6779"
   x2="674.1703"
   y2="-1018.059"
   gradientTransform="matrix(1 0 0 1 0 1150)">
																	<stop
   offset="0"
   style="stop-color:#E42221"
   id="stop616" />
																	<stop
   offset="0.5"
   style="stop-color:#FFFFFF"
   id="stop618" />
																	<stop
   offset="1"
   style="stop-color:#E42221"
   id="stop620" />
																</linearGradient>
																<polygon
   id="SVGID_1_"
   style="fill:url(#SVGID_00000078014350828270370800000000638907061879612862_);"
   points="                  96.1,705.5 693.7,105.1 699.3,110.8 101.7,711.2                 " />
															</g>
															<g
   id="g642">
																<g
   id="g640">
																	<defs
   id="defs627">
																		<polygon
   id="SVGID_00000117674090123273075320000002331945385558664877_"
   points="96.1,705.5 693.7,105.1                     699.3,110.8 101.7,711.2                   " />
																	</defs>
																	<clipPath
   id="SVGID_00000060017260273984023600000016733797974922301621_">
																		<use
   xlink:href="#SVGID_00000117674090123273075320000002331945385558664877_"
   style="overflow:visible;"
   id="use629" />
																	</clipPath>
																	
																		<linearGradient
   id="svg_22_00000053512192471484288780000001479746762126686339_"
   gradientUnits="userSpaceOnUse"
   x1="1348.7253"
   y1="826.8963"
   x2="1349.7253"
   y2="826.8963"
   gradientTransform="matrix(603.3 0 0 -603.2 -813589.875 499192)">
																		<stop
   offset="0"
   style="stop-color:#E42221"
   id="stop632" />
																		<stop
   offset="0.5"
   style="stop-color:#FFFFFF"
   id="stop634" />
																		<stop
   offset="1"
   style="stop-color:#E42221"
   id="stop636" />
																	</linearGradient>
																	
																		<polygon
   id="svg_22"
   style="clip-path:url(#SVGID_00000060017260273984023600000016733797974922301621_);fill:url(#svg_22_00000053512192471484288780000001479746762126686339_);"
   points="                   693.7,105.1 699.4,110.8 101.7,711.2 96.1,705.6                  "
   clip-path="url(#SVGID_00000060017260273984023600000016733797974922301621_)" />
																</g>
															</g>
														</g>
													</g>
												</g>
											</g>
										</g>
									</g>
								</g>
							</g>
						</g>
					</g>
				</g>
			</g>
		</g>
	</g>
<text
   xml:space="preserve"
   style="font-style:normal;font-variant:normal;font-weight:normal;font-stretch:normal;font-size:120px;font-family:'Trebuchet MS';-inkscape-font-specification:'Trebuchet MS, Normal';font-variant-ligatures:normal;font-variant-caps:normal;font-variant-numeric:normal;font-variant-east-asian:normal;fill:#000000"
   x="697.15924"
   y="689.3222"
   id="text878"><tspan
     sodipodi:role="line"
     id="tspan876"
     x="697.15924"
     y="689.3222"
     style="font-style:normal;font-variant:normal;font-weight:normal;font-stretch:normal;font-size:113.333px;font-family:'Trebuchet MS';-inkscape-font-specification:'Trebuchet MS, Normal';font-variant-ligatures:normal;font-variant-caps:normal;font-variant-numeric:normal;font-variant-east-asian:normal;text-align:center;text-anchor:middle"
     dy="35">BASEBALL</tspan><tspan
     sodipodi:role="line"
     x="697.15924"
     y="839.3222"
     style="font-style:normal;font-variant:normal;font-weight:normal;font-stretch:normal;font-size:113.333px;font-family:'Trebuchet MS';-inkscape-font-specification:'Trebuchet MS, Normal';font-variant-ligatures:normal;font-variant-caps:normal;font-variant-numeric:normal;font-variant-east-asian:normal;text-align:center;text-anchor:middle"
     id="tspan932"
     dy="0 0 0 0 0">2.BUNDESLIGA</tspan><tspan
     sodipodi:role="line"
     x="697.15924"
     y="989.3222"
     style="font-style:normal;font-variant:normal;font-weight:normal;font-stretch:normal;font-size:113.333px;font-family:'Trebuchet MS';-inkscape-font-specification:'Trebuchet MS, Normal';font-variant-ligatures:normal;font-variant-caps:normal;font-variant-numeric:normal;font-variant-east-asian:normal;text-align:center;baseline-shift:baseline;text-anchor:middle"
     id="tspan930"
     dy="-35">WEST</tspan></text></g>
</svg>
