<?xml version="1.0" encoding="iso-8859-1"?>
<!DOCTYPE svg PUBLIC "-//W3C//DTD SVG 1.1//EN" "http://www.w3.org/Graphics/SVG/1.1/DTD/svg11.dtd">
<svg fill="currentColor" height="800px" width="800px" version="1.1" id="Capa_1" xmlns="http://www.w3.org/2000/svg" xmlns:xlink="http://www.w3.org/1999/xlink"
	 viewBox="0 0 297 297" xml:space="preserve">
<g>
	<path fill="currentColor" d="M53.619,27.393H43.438c-14.978,0-27.222,11.878-28.479,27.677c-1.62,20.355-13.158,82.029-13.275,82.65
		c-0.016,0.088-0.031,0.174-0.045,0.263c-6.625,41.34,7.093,83.695,36.699,113.301c25.526,25.525,59.053,38.287,92.582,38.287
		s67.058-12.763,92.583-38.287l65.161-65.162c11.117-11.117,11.117-29.205,0-40.322l-6.196-6.195c-2.06-2.06-4.36-3.736-6.81-5.032
		c11.08-11.119,11.069-29.179-0.036-40.285l-6.195-6.194c-4.835-4.836-11.103-7.713-17.845-8.252
		c-0.529-6.506-3.27-12.865-8.236-17.831l-6.195-6.195c-7.553-7.553-18.322-9.968-27.939-7.258
		c-1.406-3.843-3.641-7.368-6.62-10.348l-6.195-6.195c-5.385-5.385-12.546-8.351-20.161-8.351c-4.39,0-8.627,0.991-12.462,2.858
		c-5.973-4.501-15.803-10.79-28.441-14.894C115.932,5.326,86.131,3.06,53.619,27.393z M148.095,39.996L130.33,57.761
		c-11.062-7.595-29.56-13.858-49.751-4.561c-0.543-5.816-2.835-11.129-6.35-15.406C107.146,18.353,134.957,31.153,148.095,39.996z
		 M115.683,72.408l-32.761,32.761l-1.305-29.234C96.001,65.249,108.428,68.501,115.683,72.408z M60.578,56.094
		c0.406,18.215,3.246,72.804,3.246,72.804c0.178,3.986,2.694,7.492,6.414,8.937c3.721,1.442,7.942,0.555,10.765-2.266l89.312-89.312
		c3.264-3.266,8.578-3.266,11.842,0l6.195,6.195c3.265,3.264,3.265,8.578,0,11.843L163.395,89.25l-0.864-2.593
		c-1.056-3.166-4.475-4.876-7.642-3.821c-3.165,1.055-4.876,4.477-3.821,7.642l1.558,4.675l-4.675-1.558
		c-3.169-1.057-6.587,0.656-7.642,3.821c-1.055,3.165,0.656,6.587,3.821,7.642l2.593,0.864l-8.337,8.337
		c-3.932,3.932-3.932,10.308,0,14.24c3.933,3.931,10.307,3.931,14.24,0l8.337-8.337l0.864,2.593c0.845,2.532,3.202,4.133,5.73,4.133
		c0.633,0,1.277-0.1,1.911-0.312c3.165-1.055,4.876-4.477,3.821-7.642l-1.558-4.675l4.675,1.558
		c0.634,0.211,1.278,0.312,1.911,0.312c2.529,0,4.887-1.602,5.73-4.133c1.055-3.165-0.656-6.587-3.821-7.642l-2.593-0.864
		l33.434-33.434c3.264-3.266,8.578-3.266,11.843,0l6.195,6.195c3.265,3.264,3.265,8.578,0,11.843l-16.279,16.279l-0.864-2.593
		c-1.056-3.165-4.48-4.876-7.642-3.821c-3.165,1.055-4.876,4.477-3.821,7.642l1.558,4.675l-4.675-1.558
		c-3.169-1.058-6.587,0.656-7.642,3.821c-1.055,3.165,0.656,6.587,3.821,7.642l2.592,0.864l-25.493,25.492
		c-3.932,3.932-3.932,10.308,0,14.24c1.967,1.966,4.543,2.949,7.12,2.949c2.576,0,5.153-0.983,7.12-2.949l25.493-25.493l0.864,2.593
		c0.845,2.532,3.202,4.133,5.73,4.133c0.633,0,1.278-0.1,1.911-0.312c3.165-1.055,4.876-4.477,3.821-7.642l-1.558-4.674l4.675,1.558
		c0.634,0.211,1.278,0.312,1.911,0.312c2.529,0,4.887-1.602,5.73-4.133c1.055-3.165-0.656-6.587-3.821-7.642l-2.593-0.864
		l16.279-16.279c1.581-1.582,3.684-2.453,5.921-2.453c2.236,0,4.339,0.871,5.921,2.453l6.195,6.194
		c3.264,3.265,3.264,8.578,0,11.842l-33.434,33.434l-0.864-2.593c-1.056-3.166-4.473-4.876-7.642-3.821
		c-3.165,1.055-4.876,4.477-3.821,7.642l1.558,4.675l-4.675-1.558c-3.167-1.057-6.587,0.656-7.642,3.821
		c-1.055,3.165,0.656,6.587,3.821,7.642l2.593,0.864l-16.675,16.675c-3.932,3.932-3.932,10.308,0,14.24
		c1.967,1.966,4.543,2.949,7.12,2.949c2.577,0,5.153-0.983,7.12-2.949l16.675-16.675l0.864,2.593
		c0.845,2.532,3.202,4.133,5.73,4.133c0.633,0,1.277-0.1,1.911-0.312c3.165-1.055,4.876-4.477,3.821-7.642l-1.558-4.675l4.675,1.558
		c0.634,0.211,1.278,0.312,1.911,0.312c2.529,0,4.887-1.602,5.73-4.133c1.055-3.165-0.656-6.587-3.821-7.642l-2.593-0.864
		l14.198-14.198c3.264-3.265,8.577-3.263,11.842,0l6.195,6.195c3.265,3.264,3.265,8.578,0,11.842l-65.161,65.162
		c-43.197,43.198-113.486,43.199-156.685,0c-25.021-25.021-36.633-60.807-31.075-95.748c0.762-4.067,11.849-63.503,13.532-84.627
		c0.363-4.559,3.367-9.174,8.405-9.174h8.761C56.816,47.494,60.475,51.477,60.578,56.094z"/>
	<path fill="currentColor" d="M186.213,208.708c-4.217-3.627-10.574-3.145-14.198,1.07c-11.721,13.63-27.175,21.137-43.518,21.137
		c-16.342,0-31.796-7.507-43.517-21.137c-3.624-4.217-9.982-4.697-14.198-1.07c-4.216,3.625-4.696,9.982-1.07,14.198
		c15.605,18.15,36.483,28.146,58.785,28.146c22.303,0,43.18-9.996,58.786-28.146C190.909,218.691,190.429,212.334,186.213,208.708z"
		/>
</g>
</svg>
