<?xml version="1.0" encoding="iso-8859-1"?>
<!-- Uploaded to: SVG Repo, www.svgrepo.com, Generator: SVG Repo Mixer Tools -->
<!DOCTYPE svg PUBLIC "-//W3C//DTD SVG 1.1//EN" "http://www.w3.org/Graphics/SVG/1.1/DTD/svg11.dtd">
<svg fill="#333333" height="800px" width="800px" version="1.1" id="Capa_1" xmlns="http://www.w3.org/2000/svg" xmlns:xlink="http://www.w3.org/1999/xlink"
	 viewBox="0 0 297 297" xml:space="preserve">
<path d="M271.189,81.654l16.53-16.53c12.372-12.373,12.372-32.506,0-44.879L276.757,9.281c-12.373-12.373-32.506-12.375-44.879,0
	L207.52,33.638C173.371,18.792,117.657,4.495,40.771,16.134c-5.008,0.758-8.644,5.153-8.462,10.216
	c0.183,5.062,4.14,9.183,9.19,9.578c0.28,0.021,28.329,2.354,56.263,16.303c21.975,10.973,37.647,25.786,46.921,44.246
	l-33.086,33.086c-9.66,9.661-20.689,26.584-31.354,42.95c-7.94,12.185-15.44,23.693-21.385,30.711
	c-4.393,5.185-16.725,17.254-24.993,25.202c-2.871-1.142-5.964-1.739-9.148-1.739c-6.604,0-12.814,2.572-17.485,7.242
	c-9.64,9.64-9.64,25.327,0,34.969l20.874,20.873c4.82,4.82,11.152,7.23,17.484,7.23s12.665-2.41,17.485-7.23
	c4.67-4.67,7.242-10.88,7.242-17.485c0-3.184-0.598-6.276-1.739-9.148c7.948-8.268,20.016-20.6,25.201-24.993
	c7.018-5.945,18.526-13.445,30.711-21.385c16.366-10.665,33.289-21.694,42.95-31.354l3.953-3.953
	c13.008,15.337,32.4,25.098,54.039,25.098c39.071,0,70.858-31.787,70.858-70.858C296.288,114.054,286.527,94.661,271.189,81.654z
	 M245.974,23.377c4.601-4.6,12.087-4.599,16.686,0l10.963,10.963c4.601,4.6,4.601,12.086,0,16.686L259.18,65.47
	c-6.645-5.789-17.494-14.141-32.753-22.547L245.974,23.377z M194.066,72.176c-0.46-0.624-12.11-16.305-35.92-24.708
	c-3.117-1.095-6.53,0.535-7.63,3.649c-1.099,3.115,0.535,6.531,3.649,7.63c19.771,6.977,29.274,19.028,29.715,19.599
	c-6.822,4.957-12.733,11.091-17.421,18.114c-10.48-26.572-30.883-47.774-60.376-62.353c-1.587-0.785-3.171-1.536-4.749-2.255
	c44.663,0.791,78.195,11.031,100.58,21.1c8.66,3.895,16.173,7.981,22.573,11.907C213.58,65.001,203.262,67.616,194.066,72.176z
	 M184.773,113.515c0.985,1.217,2.424,1.847,3.876,1.847c1.102,0,2.211-0.363,3.133-1.111l1.186-0.96
	c0.5,1.144,0.957,2.307,1.378,3.484l-3.375,2.276c-2.282,1.54-2.884,4.637-1.345,6.919c0.963,1.427,2.536,2.198,4.137,2.198
	c0.959,0,1.927-0.276,2.782-0.853l0.409-0.276c0.186,1.212,0.32,2.437,0.428,3.668h-2.398c-2.753,0-4.984,2.231-4.984,4.984
	s2.231,4.984,4.984,4.984h2.398c-0.107,1.231-0.242,2.456-0.428,3.668l-0.409-0.276c-2.282-1.539-5.38-0.936-6.919,1.345
	c-1.539,2.282-0.936,5.379,1.345,6.919l3.375,2.276c-0.421,1.177-0.878,2.34-1.378,3.484l-1.186-0.96
	c-2.138-1.733-5.277-1.404-7.009,0.737c-1.733,2.138-1.403,5.277,0.737,7.009l2.559,2.072c-0.42,0.618-0.855,1.227-1.301,1.831
	c-7.635-8.908-12.263-20.465-12.263-33.089c0-12.625,4.628-24.182,12.263-33.089c0.446,0.603,0.881,1.212,1.301,1.831l-2.559,2.072
	C183.371,108.238,183.041,111.377,184.773,113.515z M153.341,171.309c-8.19,8.19-24.228,18.642-39.738,28.749
	c-12.723,8.291-24.74,16.123-32.712,22.876c-8.764,7.425-31.157,31.06-32.106,32.063c-3.71,3.921-3.626,10.083,0.192,13.9
	c1.221,1.222,1.403,2.647,1.403,3.388c0,0.741-0.182,2.167-1.404,3.388c-1.867,1.869-4.91,1.869-6.777,0l-20.873-20.872
	c-1.868-1.869-1.869-4.91,0-6.778c1.222-1.222,2.648-1.404,3.388-1.404c0.742,0,2.167,0.182,3.388,1.403
	c3.818,3.818,9.981,3.902,13.9,0.192c1.003-0.949,24.638-23.341,32.063-32.106c6.753-7.972,14.585-19.989,22.876-32.712
	c10.107-15.51,20.56-31.548,28.749-39.738l26.385-26.385c1.359,6.002,2.203,12.29,2.505,18.874c0,0.004,0.001,0.008,0.001,0.013
	c0.065,9.932,2.188,19.379,5.957,27.95L153.341,171.309z M194.025,175.736c0.628-0.816,1.241-1.641,1.828-2.482l2.332,1.889
	c0.923,0.748,2.031,1.111,3.133,1.111c1.451,0,2.891-0.631,3.876-1.847c1.733-2.138,1.403-5.277-0.737-7.009l-3.493-2.829
	c0.678-1.388,1.29-2.804,1.867-4.236l1.661,1.121c0.855,0.576,1.823,0.853,2.782,0.853c1.601,0,3.174-0.771,4.137-2.198
	c1.539-2.282,0.936-5.379-1.345-6.919l-4.136-2.79c0.718-3.176,1.201-6.422,1.445-9.723h2.831c2.753,0,4.984-2.231,4.984-4.984
	s-2.231-4.984-4.984-4.984h-2.831c-0.243-3.301-0.727-6.547-1.445-9.723l4.136-2.79c2.282-1.54,2.884-4.637,1.345-6.919
	s-4.636-2.884-6.919-1.345l-1.662,1.121c-0.576-1.432-1.189-2.849-1.867-4.236l3.494-2.829c2.139-1.733,2.469-4.871,0.737-7.009
	c-1.733-2.139-4.87-2.469-7.009-0.737l-2.333,1.889c-0.587-0.84-1.2-1.666-1.828-2.481c8.659-6.806,19.561-10.881,31.404-10.881
	c11.843,0,22.745,4.075,31.405,10.881c-0.628,0.816-1.241,1.641-1.827,2.481l-2.333-1.889c-2.138-1.733-5.277-1.404-7.009,0.737
	c-1.732,2.138-1.403,5.277,0.737,7.009l3.494,2.829c-0.678,1.388-1.291,2.805-1.867,4.236l-1.663-1.121
	c-2.283-1.539-5.38-0.936-6.919,1.345s-0.936,5.379,1.345,6.919l4.137,2.79c-0.718,3.176-1.201,6.422-1.445,9.722h-2.831
	c-2.753,0-4.984,2.231-4.984,4.984s2.231,4.984,4.984,4.984h2.831c0.243,3.301,0.727,6.547,1.445,9.723l-4.137,2.79
	c-2.282,1.54-2.884,4.637-1.345,6.919c0.963,1.427,2.536,2.198,4.137,2.198c0.959,0,1.927-0.276,2.782-0.853l1.662-1.121
	c0.577,1.432,1.189,2.849,1.867,4.237l-3.493,2.829c-2.139,1.733-2.468,4.871-0.737,7.009c0.985,1.217,2.424,1.847,3.876,1.847
	c1.102,0,2.211-0.363,3.133-1.111l2.332-1.889c0.587,0.84,1.199,1.665,1.827,2.481c-8.659,6.806-19.562,10.881-31.405,10.881
	C213.586,186.616,202.684,182.541,194.025,175.736z M264.09,168.782c-0.446-0.603-0.881-1.212-1.301-1.831l2.559-2.072
	c2.139-1.733,2.468-4.871,0.737-7.009c-1.732-2.14-4.871-2.47-7.009-0.737l-1.185,0.96c-0.5-1.145-0.957-2.308-1.378-3.484
	l3.374-2.276c2.282-1.54,2.884-4.637,1.345-6.919c-1.54-2.282-4.637-2.884-6.919-1.345l-0.408,0.275
	c-0.186-1.212-0.32-2.436-0.427-3.668h2.398c2.753,0,4.984-2.231,4.984-4.984s-2.231-4.984-4.984-4.984h-2.398
	c0.107-1.231,0.242-2.456,0.428-3.667l0.408,0.275c0.855,0.576,1.823,0.853,2.782,0.853c1.601,0,3.174-0.771,4.137-2.198
	c1.539-2.282,0.936-5.379-1.345-6.919l-3.374-2.276c0.422-1.177,0.878-2.34,1.378-3.484l1.185,0.959
	c0.923,0.748,2.031,1.111,3.133,1.111c1.451,0,2.891-0.631,3.876-1.847c1.732-2.138,1.403-5.277-0.737-7.009l-2.559-2.072
	c0.42-0.618,0.855-1.227,1.301-1.831c7.635,8.908,12.263,20.465,12.263,33.089C276.353,148.317,271.725,159.874,264.09,168.782z"/>
</svg>
