<?xml version="1.0" encoding="iso-8859-1"?>
<!-- Uploaded to: SVG Repo, www.svgrepo.com, Generator: SVG Repo Mixer Tools -->
<!DOCTYPE svg PUBLIC "-//W3C//DTD SVG 1.1//EN" "http://www.w3.org/Graphics/SVG/1.1/DTD/svg11.dtd">
<svg fill="#333333" height="800px" width="800px" version="1.1" id="Capa_1" xmlns="http://www.w3.org/2000/svg" xmlns:xlink="http://www.w3.org/1999/xlink"
	 viewBox="0 0 297 297" xml:space="preserve">
<path d="M288.654,137.62l-6.193-6.193c-2.05-2.05-4.339-3.72-6.776-5.014c11.058-11.134,11.037-29.187-0.068-40.292l-6.194-6.193
	c-4.963-4.963-11.316-7.706-17.818-8.242c-0.545-6.738-3.424-13.001-8.257-17.834l-6.193-6.192
	c-5.391-5.392-12.558-8.361-20.182-8.361c-2.668,0-5.277,0.371-7.777,1.075c-1.381-3.766-3.573-7.299-6.591-10.317l-6.193-6.193
	c-11.127-11.125-29.232-11.127-40.363,0l-37.357,37.357c-13.411,1.872-25.875,6.736-36.694,13.897l-1.234-27.63
	c-0.135-15.623-12.886-28.292-28.541-28.292h-8.758c-14.994,0-27.25,11.925-28.509,27.74C13.335,67.283,1.8,128.941,1.684,129.561
	c-0.016,0.088-0.032,0.175-0.045,0.262c-6.626,41.343,7.094,83.7,36.7,113.306c24.731,24.731,57.611,38.35,92.585,38.35
	c34.974,0,67.855-13.619,92.585-38.35l65.145-65.145C299.782,166.855,299.782,148.749,288.654,137.62z M243.347,94.216
	c3.252-3.25,8.539-3.25,11.789,0l6.193,6.193c3.25,3.25,3.25,8.537,0,11.787l-41.187,41.187c0.055-1.282,0.089-2.57,0.089-3.866
	c0-9.687-1.559-19.016-4.429-27.756L243.347,94.216z M79.387,103.948c1.321,1.642,2.562,3.333,3.726,5.068l-3.611,2.924
	c-2.603,2.107-3.003,5.924-0.897,8.525c1.198,1.48,2.949,2.248,4.715,2.248c1.34,0,2.689-0.442,3.81-1.351l1.948-1.577
	c0.78,1.749,1.488,3.529,2.126,5.337l-4.641,3.13c-2.775,1.873-3.507,5.64-1.636,8.416c1.171,1.735,3.084,2.673,5.032,2.673
	c1.165,0,2.344-0.336,3.384-1.037l1.05-0.708c0.314,1.933,0.544,3.888,0.703,5.86h-3.553c-3.348,0-6.062,2.714-6.062,6.062
	s2.714,6.062,6.062,6.062h3.553c-0.16,1.971-0.389,3.926-0.703,5.86l-1.05-0.708c-2.776-1.871-6.544-1.139-8.416,1.636
	c-1.872,2.775-1.14,6.543,1.636,8.416l4.641,3.13c-0.638,1.808-1.346,3.588-2.126,5.337l-1.948-1.577
	c-2.602-2.106-6.42-1.706-8.525,0.897c-2.106,2.602-1.706,6.418,0.897,8.525l3.611,2.924c-1.164,1.735-2.405,3.426-3.726,5.068
	c-10.734-12.161-17.268-28.112-17.268-45.569S68.653,116.108,79.387,103.948z M92.58,197.683l3.377,2.735
	c1.122,0.909,2.47,1.351,3.81,1.351c1.766,0,3.517-0.768,4.715-2.248c2.106-2.602,1.706-6.418-0.897-8.525l-4.785-3.874
	c1.006-2.038,1.904-4.125,2.74-6.238l2.578,1.739c1.04,0.701,2.218,1.037,3.384,1.037c1.948,0,3.861-0.937,5.032-2.673
	c1.872-2.775,1.14-6.543-1.636-8.416l-5.604-3.78c0.989-4.311,1.646-8.723,1.958-13.213h4.055c3.348,0,6.062-2.714,6.062-6.062
	s-2.714-6.062-6.062-6.062h-4.055c-0.312-4.489-0.969-8.902-1.958-13.213l5.604-3.78c2.775-1.873,3.507-5.64,1.636-8.416
	c-1.872-2.773-5.638-3.506-8.416-1.636l-2.578,1.739c-0.836-2.113-1.734-4.2-2.74-6.238l4.785-3.874
	c2.603-2.107,3.003-5.924,0.897-8.525c-2.106-2.603-5.927-3.003-8.525-0.897l-3.377,2.735c-1.368-1.981-2.838-3.902-4.382-5.776
	c11.78-9.383,26.679-15.01,42.874-15.01s31.094,5.627,42.874,15.01c-1.545,1.874-3.015,3.796-4.383,5.777l-3.378-2.735
	c-2.602-2.106-6.42-1.706-8.525,0.897c-2.106,2.602-1.706,6.418,0.897,8.525l4.785,3.875c-1.005,2.038-1.904,4.125-2.739,6.237
	l-2.578-1.739c-2.776-1.871-6.543-1.139-8.416,1.636c-1.872,2.775-1.14,6.543,1.636,8.416l5.604,3.78
	c-0.989,4.311-1.646,8.723-1.958,13.213h-4.055c-3.348,0-6.062,2.714-6.062,6.062s2.714,6.062,6.062,6.062h4.055
	c0.312,4.489,0.969,8.902,1.958,13.213l-5.604,3.78c-2.775,1.873-3.507,5.64-1.636,8.416c1.171,1.735,3.084,2.673,5.032,2.673
	c1.165,0,2.344-0.336,3.384-1.037l2.578-1.739c0.836,2.112,1.734,4.199,2.739,6.237l-4.785,3.875
	c-2.603,2.107-3.003,5.924-0.897,8.525c1.198,1.48,2.949,2.248,4.715,2.248c1.34,0,2.689-0.442,3.81-1.351l3.378-2.735
	c1.368,1.981,2.838,3.902,4.383,5.777c-11.78,9.383-26.679,15.01-42.874,15.01s-31.094-5.627-42.874-15.01
	C89.743,201.585,91.213,199.664,92.58,197.683z M182.758,195.085c-1.321-1.642-2.562-3.334-3.726-5.069l3.611-2.924
	c2.603-2.107,3.003-5.924,0.897-8.525c-2.106-2.603-5.925-3.003-8.525-0.897l-1.947,1.577c-0.78-1.749-1.488-3.529-2.126-5.336
	l4.641-3.13c2.775-1.873,3.507-5.64,1.636-8.416c-1.872-2.774-5.638-3.507-8.416-1.636l-1.05,0.708
	c-0.314-1.933-0.544-3.888-0.703-5.86h3.553c3.348,0,6.062-2.714,6.062-6.062s-2.714-6.062-6.062-6.062h-3.553
	c0.16-1.971,0.389-3.926,0.703-5.86l1.05,0.708c1.04,0.701,2.218,1.037,3.384,1.037c1.948,0,3.861-0.937,5.032-2.673
	c1.872-2.775,1.14-6.543-1.636-8.416l-4.641-3.13c0.638-1.807,1.346-3.587,2.126-5.336l1.947,1.577
	c1.122,0.909,2.47,1.351,3.81,1.351c1.766,0,3.517-0.768,4.715-2.248c2.106-2.602,1.706-6.418-0.897-8.525l-3.611-2.924
	c1.164-1.735,2.405-3.427,3.726-5.069c10.734,12.161,17.268,28.112,17.268,45.569S193.492,182.925,182.758,195.085z M211.079,61.946
	c1.575-1.574,3.667-2.441,5.893-2.441c2.227,0,4.319,0.867,5.894,2.442l6.194,6.193c1.574,1.575,2.441,3.667,2.441,5.893
	c0,2.227-0.867,4.319-2.442,5.894l-22.384,22.384c-4.547-7.257-10.109-13.814-16.486-19.475L211.079,61.946z M170.336,38.153
	c1.574-1.575,3.667-2.441,5.893-2.441c2.227,0,4.32,0.866,5.894,2.441l6.193,6.193c1.575,1.574,2.441,3.667,2.441,5.894
	c0,2.226-0.866,4.319-2.441,5.893l-14.925,14.925c-8.196-4.439-17.162-7.631-26.641-9.319L170.336,38.153z M274.366,163.696
	l-65.145,65.145c-43.171,43.173-113.421,43.175-156.595,0c-25.007-25.007-36.611-60.771-31.057-95.692
	c0.762-4.066,11.846-63.489,13.528-84.609c0.361-4.541,3.352-9.138,8.367-9.138h8.758c4.597,0,8.336,3.739,8.336,8.336
	c0,0.15,0.003,0.301,0.01,0.451l1.98,44.352c-12.877,15.461-20.634,35.329-20.634,56.975c0,49.162,39.996,89.159,89.159,89.159
	c33.2,0,62.216-18.243,77.561-45.229c0.072-0.068,0.148-0.127,0.218-0.197l47.534-47.534c3.25-3.248,8.537-3.25,11.787,0
	l6.193,6.193c1.575,1.575,2.442,3.667,2.442,5.894C276.808,160.028,275.94,162.122,274.366,163.696z"/>
</svg>
