<?xml version="1.0" encoding="utf-8"?>

<!-- Uploaded to: SVG Repo, www.svgrepo.com, Generator: SVG Repo Mixer Tools -->
<svg fill="#333333" height="800px" width="800px" version="1.1" id="_x32_" xmlns="http://www.w3.org/2000/svg" xmlns:xlink="http://www.w3.org/1999/xlink"
	 viewBox="0 0 512 512"  xml:space="preserve">
<g><polygon  points="279.851 224.385 255.457 200 231.055 224.385 255.457 248.788"></polygon><polygon  points="238.754,436.426 256.008,453.656 273.254,436.426 273.254,417.37 238.754,417.37 	"></polygon><polygon  points="336.518 324.386 360.912 300 385.305 324.386 360.912 348.788"></polygon><polygon  points="151.527 300 127.133 324.402 151.527 348.788 175.921 324.402"></polygon><path  d="M 336.518 295.357 L 288.107 246.947 C 279.948 255.107 268.672 260.157 256.222 260.157 C 243.76 260.157 232.485 255.107 224.326 246.947 L 175.921 295.357 C 184.081 303.512 189.125 314.793 189.125 327.249 C 189.125 339.699 184.081 350.975 175.921 359.14 L 224.326 407.545 C 232.485 399.385 243.76 394.341 256.222 394.341 C 268.672 394.341 279.948 399.385 288.107 407.545 L 336.518 359.14 C 328.353 350.975 323.308 339.7 323.308 327.249 C 323.307 314.794 328.352 303.513 336.518 295.357 Z M 270.779 330.703 L 239.88 330.703 L 239.88 322.011 L 270.779 322.011 L 270.779 330.703 Z" style=""></path><path  d="M511.871,256.717c-1.779-67.973-30.084-129.334-74.881-174.099C390.688,36.291,326.674,7.625,256.008,7.633
		C185.326,7.625,121.312,36.291,75.009,82.618C30.212,127.383,1.907,188.744,0.128,256.717L0,261.79l233.096,233.088
		c6.291,6.306,14.649,9.513,22.912,9.488c8.238,0.025,16.604-3.182,22.903-9.488L512,261.79L511.871,256.717z M262.21,478.194
		c-1.747,1.739-3.927,2.564-6.202,2.572c-2.292-0.008-4.472-0.834-6.219-2.581L23.978,252.382
		c2.837-59.75,28.112-113.459,67.732-153.079c42.104-42.088,100.06-68.06,164.298-68.069c64.23,0.008,122.178,25.981,164.29,68.069
		c39.612,39.62,64.896,93.329,67.716,153.088L262.21,478.194z"></path></g>
</svg>
