<svg version="1.1" id="Layer_1" xmlns="http://www.w3.org/2000/svg" xmlns:xlink="http://www.w3.org/1999/xlink" x="0px" y="0px"
	 width="100%" viewBox="0 0 704 799" enable-background="new 0 0 704 799" xml:space="preserve">
<path fill="none" opacity="1.000000" stroke="none"
	d="
M390.000000,1.000002
	C494.984833,1.000000 599.969666,1.000000 704.977234,1.000000
	C704.977234,267.279694 704.977234,533.559387 704.977234,799.919556
	C470.420929,799.919556 235.841797,799.919556 1.131334,799.919556
	C1.131334,533.666687 1.131334,267.333374 1.126576,1.000011
	C104.773705,1.000000 208.425598,1.000000 312.558319,1.425861
	C311.692108,2.233768 310.363495,2.853364 308.995056,2.959590
	C299.605804,3.688431 290.165222,3.944220 280.822601,5.044300
	C263.164825,7.123477 245.455231,9.067082 227.962982,12.170693
	C205.879272,16.088957 187.885651,27.505764 175.097000,45.991501
	C157.124786,71.970039 155.529556,99.842201 166.893616,128.960220
	C170.351822,137.821136 172.995804,146.999817 175.618271,156.020386
	C174.580750,156.111038 173.870773,156.071930 173.304260,156.338135
	C155.596634,164.658951 137.665863,172.547409 120.268158,181.474380
	C99.263687,192.251999 79.832497,205.694229 62.302227,221.449142
	C42.151253,239.559372 24.178137,259.621735 13.385076,285.105743
	C7.270462,299.543243 3.332438,314.457703 3.079447,330.157043
	C2.954460,337.913116 3.148566,345.750793 4.153798,353.426392
	C5.098063,360.636475 6.097928,368.261444 9.193109,374.681946
	C16.155315,389.124023 27.423626,400.302277 40.083195,410.003326
	C53.663044,420.409546 68.637459,428.298889 84.647011,434.249603
	C101.353157,440.459259 118.539474,444.759003 136.228836,446.997314
	C144.189209,448.004578 152.133102,449.332794 160.127075,449.829132
	C167.985779,450.317017 175.898453,449.935486 183.961411,449.935486
	C179.723663,435.305115 183.972260,422.225891 188.405426,409.064087
	C190.114624,408.670166 191.472748,408.341034 192.901031,408.452362
	C192.646622,420.522919 192.202499,432.151276 192.028839,443.783630
	C191.827927,457.240540 195.147736,470.095459 200.292236,482.336823
	C204.170593,491.565399 209.343521,500.237000 217.044800,506.242188
	C217.044800,501.218872 217.044800,496.166779 217.044800,490.184326
	C231.318222,501.957916 245.848236,510.504028 261.923981,516.529846
	C272.862915,520.630127 284.054779,524.005371 293.942322,530.828918
	C305.335327,538.691345 310.514526,549.840942 314.322479,563.040283
	C297.712036,551.141663 279.702789,545.007324 260.722992,540.906555
	C243.350922,537.153259 228.836563,529.141174 222.207901,510.609131
	C220.656235,511.353943 219.091385,511.845459 217.826279,512.754272
	C209.274185,518.898010 202.677277,526.861694 197.142456,535.710571
	C195.816284,537.830872 194.379242,540.483276 194.519760,542.798218
	C194.843552,548.132751 196.172546,553.400208 196.973770,558.712891
	C200.233917,580.330261 204.336075,601.760376 212.031204,622.307983
	C215.704880,632.117432 219.562088,641.853760 227.650650,649.234131
	C233.231415,654.326233 238.945648,659.458313 243.562775,665.381348
	C253.030121,677.526306 260.293457,691.037170 266.103760,705.340332
	C273.375183,723.240356 278.337524,741.724426 281.037323,760.845154
	C281.649353,765.179810 281.547211,770.158142 283.741119,773.578125
	C286.060730,777.194092 290.583618,779.524963 294.397736,782.031128
	C309.205933,791.761597 325.841675,796.551453 343.229645,797.828796
	C366.220459,799.517761 388.583374,796.170837 408.619965,783.901123
	C415.572479,779.643799 423.244507,776.566284 424.485779,765.370850
	C426.922852,743.389954 432.524231,721.909546 441.703033,701.489502
	C450.516327,681.882568 461.130249,663.710388 477.796295,649.618958
	C480.160706,647.619812 482.276611,645.183777 484.020935,642.619019
	C491.357849,631.831177 496.030762,619.773193 498.911835,607.194397
	C503.345764,587.835754 507.132751,568.324158 510.884766,548.817993
	C511.643982,544.870911 512.026978,540.851013 509.501160,536.710205
	C504.456665,528.440491 498.347260,521.195557 491.176178,514.825134
	C489.114471,512.993652 486.338531,511.966278 483.708557,510.466766
	C478.818756,525.161377 468.591309,533.365906 455.285126,537.911377
	C447.466217,540.582397 439.242950,542.043701 431.296478,544.373108
	C417.411865,548.443298 404.272247,554.226318 391.832153,562.279114
	C394.195618,555.759094 396.511627,549.271301 400.109802,543.596436
	C408.062927,531.053406 420.666565,524.662354 434.221375,520.079651
	C448.820068,515.144043 462.872498,509.196625 475.491333,500.191345
	C479.781097,497.130005 484.173492,494.212463 489.882202,490.293335
	C489.419128,496.773895 489.060150,501.797180 488.619537,507.963562
	C492.429321,503.187622 496.037598,499.271820 498.957581,494.896606
	C510.421783,477.719147 514.140076,458.187622 514.837219,438.063232
	C515.171753,428.407501 513.777710,418.691864 513.514893,409.008789
	C515.533752,409.703552 517.204224,410.392914 518.941833,411.470398
	C522.561401,424.262634 526.150024,436.663269 522.361877,449.864990
	C543.651306,450.722321 564.360474,448.400116 584.963623,444.552887
	C603.142517,441.158325 620.753296,435.743408 637.303406,427.696747
	C657.692017,417.783783 675.981323,404.709167 689.819641,386.333466
	C693.018677,382.085510 696.287964,377.438202 697.797119,372.451721
	C703.089722,354.964355 704.422607,337.048065 702.063293,318.828461
	C699.611511,299.894104 692.946045,282.570740 682.931458,266.473450
	C672.706604,250.038071 659.872620,235.779953 645.413147,223.004288
	C639.039124,217.372604 632.520691,211.803619 625.522705,207.000488
	C612.220276,197.870300 598.747681,188.940491 584.909851,180.655685
	C576.695496,175.737717 567.648682,172.210205 558.994873,168.079605
	C559.013550,168.101685 559.051208,168.056854 558.907227,167.714401
	C558.283203,167.286301 557.803101,167.200653 557.111084,166.878113
	C552.649658,164.849884 548.400085,163.058548 544.150940,161.246490
	C544.151306,161.225754 544.147095,161.267776 543.994629,161.231155
	C543.842224,161.194534 543.528992,161.207733 543.268494,160.901566
	C538.939941,159.162231 534.871826,157.729050 530.522461,156.127411
	C529.084473,154.681046 527.927673,153.403152 527.118042,151.949646
	C529.377441,146.349884 531.098572,140.849075 533.237305,135.515762
	C539.991089,118.673874 545.039124,101.768417 542.178528,83.094658
	C537.747253,54.166454 522.661926,33.159756 497.073456,19.613838
	C486.038788,13.772326 473.909821,11.228117 461.521606,9.977994
	C438.562256,7.661116 415.603729,5.334694 392.655823,2.908877
	C391.713806,2.809296 390.882751,1.660158 390.000000,1.000002
z"/>
<path fill="#12A007" opacity="1.000000" stroke="none"
	d="
M389.531342,1.000002
	C390.882751,1.660158 391.713806,2.809296 392.655823,2.908877
	C415.603729,5.334694 438.562256,7.661116 461.521606,9.977994
	C473.909821,11.228117 486.038788,13.772326 497.073456,19.613838
	C522.661926,33.159756 537.747253,54.166454 542.178528,83.094658
	C545.039124,101.768417 539.991089,118.673874 533.237305,135.515762
	C531.098572,140.849075 529.377441,146.349884 526.739868,151.956924
	C523.786865,151.462891 521.583679,150.687820 519.327515,150.124924
	C504.138733,146.335297 490.972351,156.632858 490.998932,172.241257
	C491.003540,174.955048 490.999542,177.668854 490.999542,180.522171
	C486.050598,177.921600 481.713989,174.929749 476.916107,173.277100
	C468.209686,170.278137 459.755219,171.196350 452.734131,177.818253
	C445.803040,184.355347 444.358368,192.164627 447.607574,201.122238
	C448.191772,202.732742 447.902557,205.572220 446.822449,206.734741
	C434.527771,219.967407 443.756134,237.685837 456.959137,241.474380
	C466.312134,244.158173 474.332123,240.790192 482.502441,237.532227
	C487.038239,235.723557 491.373962,233.413116 497.024780,230.751968
	C493.705536,236.624451 490.656158,241.153778 488.476135,246.068710
	C484.719788,254.537628 481.504425,263.246490 477.653015,271.843872
	C455.868103,269.137573 434.492157,266.442108 413.041443,263.338013
	C412.317200,245.835999 402.178986,235.945663 385.034698,235.890976
	C362.727234,235.819824 340.419220,235.841553 318.111725,235.911697
	C315.144440,235.921051 312.073090,236.050781 309.230652,236.805450
	C296.886169,240.082962 290.452209,249.285477 289.366241,264.064972
	C287.101044,264.048401 285.243774,263.885742 283.449341,264.149872
	C257.651215,267.947754 231.870178,271.862885 206.063126,275.598511
	C200.295578,276.433380 195.034943,277.390137 195.046341,284.421021
	C194.672501,270.060455 194.514099,256.152130 193.914764,242.262833
	C193.617691,235.378143 192.842911,228.472153 191.694489,221.675430
	C189.701843,209.882248 187.646423,198.072174 184.873993,186.446457
	C182.420792,176.159363 178.955597,166.113617 175.973907,155.960403
	C176.010635,155.959488 176.012680,156.032959 176.012695,156.032959
	C172.995804,146.999817 170.351822,137.821136 166.893616,128.960220
	C155.529556,99.842201 157.124786,71.970039 175.097000,45.991501
	C187.885651,27.505764 205.879272,16.088957 227.962982,12.170693
	C245.455231,9.067082 263.164825,7.123477 280.822601,5.044300
	C290.165222,3.944220 299.605804,3.688431 308.995056,2.959590
	C310.363495,2.853364 311.692108,2.233768 313.019592,1.425861
	C338.354218,1.000000 363.708466,1.000000 389.531342,1.000002
z"/>
<path fill="#E86F00" opacity="1.000000" stroke="none"
	d="
M513.166443,409.003357
	C513.777710,418.691864 515.171753,428.407501 514.837219,438.063232
	C514.140076,458.187622 510.421783,477.719147 498.957581,494.896606
	C496.037598,499.271820 492.429321,503.187622 488.619537,507.963562
	C489.060150,501.797180 489.419128,496.773895 489.882202,490.293335
	C484.173492,494.212463 479.781097,497.130005 475.491333,500.191345
	C462.872498,509.196625 448.820068,515.144043 434.221375,520.079651
	C420.666565,524.662354 408.062927,531.053406 400.109802,543.596436
	C396.511627,549.271301 394.195618,555.759094 391.832153,562.279114
	C404.272247,554.226318 417.411865,548.443298 431.296478,544.373108
	C439.242950,542.043701 447.466217,540.582397 455.285126,537.911377
	C468.591309,533.365906 478.818756,525.161377 483.708557,510.466766
	C486.338531,511.966278 489.114471,512.993652 491.176178,514.825134
	C498.347260,521.195557 504.456665,528.440491 509.501160,536.710205
	C512.026978,540.851013 511.643982,544.870911 510.884766,548.817993
	C507.132751,568.324158 503.345764,587.835754 498.911835,607.194397
	C496.030762,619.773193 491.357849,631.831177 484.020935,642.619019
	C482.276611,645.183777 480.160706,647.619812 477.796295,649.618958
	C461.130249,663.710388 450.516327,681.882568 441.703033,701.489502
	C432.524231,721.909546 426.922852,743.389954 424.485779,765.370850
	C423.244507,776.566284 415.572479,779.643799 408.619965,783.901123
	C388.583374,796.170837 366.220459,799.517761 343.229645,797.828796
	C325.841675,796.551453 309.205933,791.761597 294.397736,782.031128
	C290.583618,779.524963 286.060730,777.194092 283.741119,773.578125
	C281.547211,770.158142 281.649353,765.179810 281.037323,760.845154
	C278.337524,741.724426 273.375183,723.240356 266.103760,705.340332
	C260.293457,691.037170 253.030121,677.526306 243.562775,665.381348
	C238.945648,659.458313 233.231415,654.326233 227.650650,649.234131
	C219.562088,641.853760 215.704880,632.117432 212.031204,622.307983
	C204.336075,601.760376 200.233917,580.330261 196.973770,558.712891
	C196.172546,553.400208 194.843552,548.132751 194.519760,542.798218
	C194.379242,540.483276 195.816284,537.830872 197.142456,535.710571
	C202.677277,526.861694 209.274185,518.898010 217.826279,512.754272
	C219.091385,511.845459 220.656235,511.353943 222.207901,510.609131
	C228.836563,529.141174 243.350922,537.153259 260.722992,540.906555
	C279.702789,545.007324 297.712036,551.141663 314.322479,563.040283
	C310.514526,549.840942 305.335327,538.691345 293.942322,530.828918
	C284.054779,524.005371 272.862915,520.630127 261.923981,516.529846
	C245.848236,510.504028 231.318222,501.957916 217.044800,490.184326
	C217.044800,496.166779 217.044800,501.218872 217.044800,506.242188
	C209.343521,500.237000 204.170593,491.565399 200.292236,482.336823
	C195.147736,470.095459 191.827927,457.240540 192.028839,443.783630
	C192.202499,432.151276 192.646622,420.522919 193.085510,408.128815
	C194.255402,406.910400 195.281631,406.364594 196.370804,406.014862
	C224.428940,397.006042 253.088852,390.803833 282.286774,386.746338
	C322.390656,381.173340 362.545990,380.587891 402.769348,384.570496
	C438.250916,388.083588 473.015625,395.294128 506.992920,406.164581
	C509.134308,406.849731 511.112396,408.045258 513.166443,409.003357
M391.999939,416.503143
	C391.999939,412.339478 391.973145,408.175598 392.006226,404.012207
	C392.055023,397.872070 393.811432,396.111755 399.868622,395.987946
	C400.818054,395.968536 401.764771,395.816010 402.999756,395.697479
	C402.885590,394.011932 402.792145,392.631592 402.693634,391.177094
	C387.022491,391.177094 371.740906,391.177094 356.393677,391.177094
	C355.490021,394.394440 356.339722,395.694336 359.779449,396.102417
	C367.079620,396.968475 372.494019,402.409271 373.010529,408.510376
	C373.834503,418.243439 371.152557,424.668671 361.977570,426.721710
	C353.133301,428.700714 343.679871,427.957062 334.024170,428.432709
	C334.024170,418.554108 333.870575,409.601074 334.107971,400.658478
	C334.190399,397.554047 335.971405,395.512207 339.667725,395.950684
	C341.929474,396.219025 344.248993,396.000275 346.725647,396.000275
	C346.725647,394.162079 346.725647,392.779541 346.725647,391.259094
	C331.380402,391.259094 316.296082,391.259094 301.211761,391.259094
	C300.949860,391.678711 300.687958,392.098328 300.426056,392.517944
	C301.486115,393.354980 302.423553,394.605133 303.626129,394.962097
	C311.407593,397.271790 311.997009,397.963898 311.998962,406.291138
	C312.003448,425.277069 312.000549,444.263000 312.000305,463.248932
	C312.000153,473.918213 311.871033,474.067322 301.270630,475.471710
	C301.270630,476.832672 301.270630,478.218414 301.270630,479.701935
	C316.600128,479.701935 331.671082,479.701935 347.055695,479.701935
	C346.904938,477.987762 346.782715,476.598022 346.666168,475.273071
	C333.999939,474.347534 333.999939,474.347534 333.999939,461.513184
	C333.999939,459.681213 333.999939,457.849243 333.999939,456.017273
	C333.999939,449.094177 333.999939,442.171082 333.999939,435.004913
	C343.008789,435.004913 351.389496,434.317017 359.609650,435.171997
	C370.912567,436.347626 379.963440,445.159515 377.001099,458.938202
	C374.665161,469.803406 369.409760,473.739319 356.263184,475.455627
	C356.263184,476.819672 356.263184,478.210022 356.263184,479.710571
	C371.920471,479.710571 387.327698,479.710571 403.043854,479.710571
	C402.904663,477.996490 402.790955,476.595886 402.681915,475.253052
	C392.483978,474.550079 391.999969,474.021271 391.999939,463.967560
	C391.999847,448.479034 391.999939,432.990509 391.999939,416.503143
M294.925507,710.609924
	C291.096771,716.422668 290.891876,722.698303 293.506836,728.834473
	C295.196136,732.798401 298.139160,736.104919 303.171082,735.986206
	C307.907562,735.874512 311.295593,732.876831 312.266083,728.940186
	C313.423676,724.244995 313.778839,718.899658 312.740692,714.222351
	C311.215851,707.352295 302.214813,701.671143 294.925507,710.609924
M411.630493,730.845520
	C414.571533,725.138977 414.994904,719.205383 412.659943,713.270142
	C409.518768,705.285706 400.196503,703.210510 395.982697,709.844971
	C393.668579,713.488464 392.200867,718.365967 392.275024,722.653870
	C392.367859,728.022766 394.650879,733.442139 400.359589,735.640808
	C404.864044,737.375671 408.274597,734.769775 411.630493,730.845520
z"/>
<path fill="#E86F00" opacity="1.000000" stroke="none"
	d="
M188.054352,409.128906
	C183.972260,422.225891 179.723663,435.305115 183.961411,449.935486
	C175.898453,449.935486 167.985779,450.317017 160.127075,449.829132
	C152.133102,449.332794 144.189209,448.004578 136.228836,446.997314
	C118.539474,444.759003 101.353157,440.459259 84.647011,434.249603
	C68.637459,428.298889 53.663044,420.409546 40.083195,410.003326
	C27.423626,400.302277 16.155315,389.124023 9.193109,374.681946
	C6.097928,368.261444 5.098063,360.636475 4.153798,353.426392
	C3.148566,345.750793 2.954460,337.913116 3.079447,330.157043
	C3.332438,314.457703 7.270462,299.543243 13.385076,285.105743
	C24.178137,259.621735 42.151253,239.559372 62.302227,221.449142
	C79.832497,205.694229 99.263687,192.251999 120.268158,181.474380
	C137.665863,172.547409 155.596634,164.658951 173.304260,156.338135
	C173.870773,156.071930 174.580750,156.111038 175.618256,156.020386
	C176.012680,156.032959 176.010635,155.959488 175.912750,156.294067
	C169.914017,161.880325 163.795380,166.909164 158.151443,172.423798
	C137.873337,192.237350 117.444672,211.960526 102.870399,236.675461
	C96.711731,247.119263 91.546814,258.134155 90.127457,270.247162
	C87.825912,289.888794 96.042831,305.043945 112.088753,315.963898
	C130.654327,328.598633 151.860092,334.161621 173.630768,338.004272
	C179.381577,339.019318 185.132462,340.034027 190.902466,341.466583
	C190.046631,347.540253 189.171661,353.196259 188.103455,359.183655
	C178.814209,362.648285 169.607605,365.496796 160.647064,368.978577
	C145.632416,374.812805 130.669281,380.807281 115.887299,387.203094
	C105.812233,391.562317 99.616890,401.637085 100.428871,410.720062
	C101.834190,426.440155 117.365318,435.908539 132.768799,430.132721
	C141.471878,426.869354 149.849854,422.741943 158.541016,419.443024
	C168.280548,415.746155 178.208420,412.545471 188.054352,409.128906
z"/>
<path fill="#E86F00" opacity="1.000000" stroke="none"
	d="
M558.976135,168.057526
	C567.648682,172.210205 576.695496,175.737717 584.909851,180.655685
	C598.747681,188.940491 612.220276,197.870300 625.522705,207.000488
	C632.520691,211.803619 639.039124,217.372604 645.413147,223.004288
	C659.872620,235.779953 672.706604,250.038071 682.931458,266.473450
	C692.946045,282.570740 699.611511,299.894104 702.063293,318.828461
	C704.422607,337.048065 703.089722,354.964355 697.797119,372.451721
	C696.287964,377.438202 693.018677,382.085510 689.819641,386.333466
	C675.981323,404.709167 657.692017,417.783783 637.303406,427.696747
	C620.753296,435.743408 603.142517,441.158325 584.963623,444.552887
	C564.360474,448.400116 543.651306,450.722321 522.361877,449.864990
	C526.150024,436.663269 522.561401,424.262634 519.290405,411.226288
	C531.828796,415.269104 544.068604,419.989441 556.349426,424.600739
	C562.856689,427.044128 569.267212,430.294159 576.016052,431.431030
	C590.297791,433.836945 602.046570,423.169464 601.994324,408.858063
	C601.954590,397.960968 595.642639,391.088013 586.462036,387.078094
	C570.939392,380.298157 555.135193,374.151703 539.362671,367.959900
	C531.045959,364.695038 522.546021,361.897278 514.159180,358.463165
	C513.504822,352.346008 512.820068,346.654327 512.551758,340.977936
	C521.507202,339.661560 530.102966,338.616669 538.573853,336.940399
	C558.170410,333.062439 577.154419,327.406738 593.923157,316.006134
	C604.272156,308.970123 612.064636,299.895874 614.956238,287.469910
	C618.097656,273.970245 615.204773,261.204010 609.434692,248.856461
	C598.546326,225.556015 582.296936,206.342072 563.965210,188.247421
	C563.089417,182.873215 562.342529,177.904877 561.282166,173.004379
	C560.906982,171.270294 559.766968,169.701675 558.976135,168.057526
z"/>
<path fill="#13A007" opacity="1.000000" stroke="none"
	d="
M514.128784,358.888611
	C522.546021,361.897278 531.045959,364.695038 539.362671,367.959900
	C555.135193,374.151703 570.939392,380.298157 586.462036,387.078094
	C595.642639,391.088013 601.954590,397.960968 601.994324,408.858063
	C602.046570,423.169464 590.297791,433.836945 576.016052,431.431030
	C569.267212,430.294159 562.856689,427.044128 556.349426,424.600739
	C544.068604,419.989441 531.828796,415.269104 519.223267,410.838196
	C517.204224,410.392914 515.533752,409.703552 513.514893,409.008789
	C511.112396,408.045258 509.134308,406.849731 506.992920,406.164581
	C473.015625,395.294128 438.250916,388.083588 402.769348,384.570496
	C362.545990,380.587891 322.390656,381.173340 282.286774,386.746338
	C253.088852,390.803833 224.428940,397.006042 196.370804,406.014862
	C195.281631,406.364594 194.255402,406.910400 193.015366,407.688385
	C191.472748,408.341034 190.114624,408.670166 188.405426,409.064087
	C178.208420,412.545471 168.280548,415.746155 158.541016,419.443024
	C149.849854,422.741943 141.471878,426.869354 132.768799,430.132721
	C117.365318,435.908539 101.834190,426.440155 100.428871,410.720062
	C99.616890,401.637085 105.812233,391.562317 115.887299,387.203094
	C130.669281,380.807281 145.632416,374.812805 160.647064,368.978577
	C169.607605,365.496796 178.814209,362.648285 188.492004,359.196411
	C199.998886,356.797089 210.918121,354.685089 221.850311,352.642426
	C244.522888,348.406128 267.202362,344.206635 289.978638,340.360291
	C294.537689,356.752106 302.623291,362.929871 319.139801,362.930328
	C341.096375,362.930908 363.052948,362.946686 385.009460,362.907745
	C387.488342,362.903351 390.032532,362.889648 392.434174,362.365631
	C404.466675,359.740204 410.472168,351.435364 413.457336,340.060150
	C424.044159,341.628906 434.283722,342.801941 444.372223,344.755402
	C467.663361,349.265289 490.881195,354.153717 514.128784,358.888611
z"/>
<path fill="#45E900" opacity="1.000000" stroke="none"
	d="
M558.994873,168.079605
	C559.766968,169.701675 560.906982,171.270294 561.282166,173.004379
	C562.342529,177.904877 563.089417,182.873215 563.656372,188.454315
	C560.941528,197.636505 553.466858,201.659821 547.311646,206.545990
	C552.052429,209.009323 556.667114,211.126846 561.000916,213.714706
	C571.500305,219.984253 573.988525,235.707474 563.701233,245.950089
	C559.713623,249.920364 557.450684,253.905304 555.714844,258.820435
	C553.355042,265.502625 549.470215,270.901489 542.178833,272.878876
	C528.047424,276.711334 513.127441,271.100891 508.852356,251.706726
	C507.494110,245.229889 506.168610,239.149124 504.633209,232.105606
	C494.960266,244.998123 488.970062,258.680786 483.647522,272.915375
	C481.532013,272.569702 479.797028,272.212189 478.062012,271.854645
	C481.504425,263.246490 484.719788,254.537628 488.476135,246.068710
	C490.656158,241.153778 493.705536,236.624451 497.024780,230.751968
	C491.373962,233.413116 487.038239,235.723557 482.502441,237.532227
	C474.332123,240.790192 466.312134,244.158173 456.959137,241.474380
	C443.756134,237.685837 434.527771,219.967407 446.822449,206.734741
	C447.902557,205.572220 448.191772,202.732742 447.607574,201.122238
	C444.358368,192.164627 445.803040,184.355347 452.734131,177.818253
	C459.755219,171.196350 468.209686,170.278137 476.916107,173.277100
	C481.713989,174.929749 486.050598,177.921600 490.999542,180.522171
	C490.999542,177.668854 491.003540,174.955048 490.998932,172.241257
	C490.972351,156.632858 504.138733,146.335297 519.327515,150.124924
	C521.583679,150.687820 523.786865,151.462891 526.392700,152.132538
	C527.927673,153.403152 529.084473,154.681046 530.665100,156.434387
	C533.681152,162.841873 538.579712,162.098206 543.528992,161.207733
	C543.528992,161.207733 543.842224,161.194534 544.005127,161.221893
	C544.168091,161.249237 544.150574,161.267212 544.150574,161.267212
	C548.400085,163.058548 552.649658,164.849884 557.288513,167.241211
	C558.135620,167.913071 558.593445,167.984955 559.051208,168.056854
	C559.051208,168.056854 559.013550,168.101685 558.994873,168.079605
z"/>
<path fill="#DD7501" opacity="1.000000" stroke="none"
	d="
M543.268494,160.901566
	C538.579712,162.098206 533.681152,162.841873 530.946411,156.602875
	C534.871826,157.729050 538.939941,159.162231 543.268494,160.901566
z"/>
<path fill="#E86F00" opacity="1.000000" stroke="none"
	d="
M558.907227,167.714401
	C558.593445,167.984955 558.135620,167.913071 557.500488,167.478088
	C557.803101,167.200653 558.283203,167.286301 558.907227,167.714401
z"/>
<path fill="#DD7501" opacity="1.000000" stroke="none"
	d="
M544.150940,161.246490
	C544.150574,161.267212 544.168091,161.249237 544.157593,161.258514
	C544.147095,161.267776 544.151306,161.225754 544.150940,161.246490
z"/>
<path fill="none" opacity="1.000000" stroke="none"
	d="
M190.883301,341.048889
	C185.132462,340.034027 179.381577,339.019318 173.630768,338.004272
	C151.860092,334.161621 130.654327,328.598633 112.088753,315.963898
	C96.042831,305.043945 87.825912,289.888794 90.127457,270.247162
	C91.546814,258.134155 96.711731,247.119263 102.870399,236.675461
	C117.444672,211.960526 137.873337,192.237350 158.151443,172.423798
	C163.795380,166.909164 169.914017,161.880325 175.876022,156.294983
	C178.955597,166.113617 182.420792,176.159363 184.873993,186.446457
	C187.646423,198.072174 189.701843,209.882248 191.694489,221.675430
	C192.842911,228.472153 193.617691,235.378143 193.914764,242.262833
	C194.514099,256.152130 194.672501,270.060455 195.028412,284.897034
	C194.951157,292.452301 195.238571,299.103607 194.682083,305.683502
	C193.683197,317.494568 192.177322,329.262756 190.883301,341.048889
z"/>
<path fill="#153112" opacity="1.000000" stroke="none"
	d="
M190.902451,341.466553
	C192.177322,329.262756 193.683197,317.494568 194.682083,305.683502
	C195.238571,299.103607 194.951157,292.452301 195.061981,285.357178
	C195.034943,277.390137 200.295578,276.433380 206.063126,275.598511
	C231.870178,271.862885 257.651215,267.947754 283.449341,264.149872
	C285.243774,263.885742 287.101044,264.048401 289.423157,264.521301
	C289.904480,290.017334 289.891754,315.004700 289.878998,339.992035
	C267.202362,344.206635 244.522888,348.406128 221.850311,352.642426
	C210.918121,354.685089 199.998886,356.797089 188.685242,358.864990
	C189.171661,353.196259 190.046631,347.540253 190.902451,341.466553
z"/>
<path fill="#153112" opacity="1.000000" stroke="none"
	d="
M477.653015,271.843872
	C479.797028,272.212189 481.532013,272.569702 484.025513,273.014465
	C492.119232,274.648804 499.454498,276.195923 506.838257,278.189423
	C508.636322,299.411407 510.385803,320.187012 512.135315,340.962616
	C512.820068,346.654327 513.504822,352.346008 514.159180,358.463165
	C490.881195,354.153717 467.663361,349.265289 444.372223,344.755402
	C434.283722,342.801941 424.044159,341.628906 413.379272,339.595276
	C412.962311,313.974976 413.039276,288.860779 413.116241,263.746613
	C434.492157,266.442108 455.868103,269.137573 477.653015,271.843872
z"/>
<path fill="#F2CA00" opacity="1.000000" stroke="none"
	d="
M413.041443,263.338013
	C413.039276,288.860779 412.962311,313.974976 412.963409,339.554016
	C410.472168,351.435364 404.466675,359.740204 392.434174,362.365631
	C390.032532,362.889648 387.488342,362.903351 385.009460,362.907745
	C363.052948,362.946686 341.096375,362.930908 319.139801,362.930328
	C302.623291,362.929871 294.537689,356.752106 289.978638,340.360291
	C289.891754,315.004700 289.904480,290.017334 289.860321,264.573669
	C290.452209,249.285477 296.886169,240.082962 309.230652,236.805450
	C312.073090,236.050781 315.144440,235.921051 318.111725,235.911697
	C340.419220,235.841553 362.727234,235.819824 385.034698,235.890976
	C402.178986,235.945663 412.317200,245.835999 413.041443,263.338013
M307.663300,288.968658
	C312.814545,288.997650 317.965759,289.044250 323.117035,289.052032
	C334.182495,289.068726 336.155365,291.066040 336.003784,302.155426
	C335.901215,309.656799 333.550446,312.042267 326.204987,312.057556
	C319.792053,312.070892 313.379059,312.060364 306.932770,312.060364
	C306.932770,321.253479 306.932770,329.694275 306.874390,338.859161
	C307.992645,343.411133 311.238800,345.560913 315.582855,345.581909
	C339.526917,345.697693 363.472321,345.716766 387.416016,345.566284
	C391.949768,345.537811 395.355316,343.314545 396.107208,337.280151
	C396.065582,312.440491 396.023926,287.600830 396.147247,262.022797
	C395.178894,256.025940 392.674072,253.245850 386.702393,253.200287
	C363.214813,253.021118 339.724030,253.007034 316.236816,253.209305
	C309.958130,253.263367 307.241028,256.419952 306.659515,262.842072
	C306.589661,263.145081 306.608276,263.442566 306.446869,264.541656
	C306.557190,272.546661 306.667511,280.551666 307.663300,288.968658
z"/>
<path fill="none" opacity="1.000000" stroke="none"
	d="
M391.999939,417.002563
	C391.999939,432.990509 391.999847,448.479034 391.999939,463.967560
	C391.999969,474.021271 392.483978,474.550079 402.681915,475.253052
	C402.790955,476.595886 402.904663,477.996490 403.043854,479.710571
	C387.327698,479.710571 371.920471,479.710571 356.263184,479.710571
	C356.263184,478.210022 356.263184,476.819672 356.263184,475.455627
	C369.409760,473.739319 374.665161,469.803406 377.001099,458.938202
	C379.963440,445.159515 370.912567,436.347626 359.609650,435.171997
	C351.389496,434.317017 343.008789,435.004913 333.999939,435.004913
	C333.999939,442.171082 333.999939,449.094177 333.999939,456.017273
	C333.999939,457.849243 333.999939,459.681213 333.999939,461.513184
	C333.999939,474.347534 333.999939,474.347534 346.666168,475.273071
	C346.782715,476.598022 346.904938,477.987762 347.055695,479.701935
	C331.671082,479.701935 316.600128,479.701935 301.270630,479.701935
	C301.270630,478.218414 301.270630,476.832672 301.270630,475.471710
	C311.871033,474.067322 312.000153,473.918213 312.000305,463.248932
	C312.000549,444.263000 312.003448,425.277069 311.998962,406.291138
	C311.997009,397.963898 311.407593,397.271790 303.626129,394.962097
	C302.423553,394.605133 301.486115,393.354980 300.426056,392.517944
	C300.687958,392.098328 300.949860,391.678711 301.211761,391.259094
	C316.296082,391.259094 331.380402,391.259094 346.725647,391.259094
	C346.725647,392.779541 346.725647,394.162079 346.725647,396.000275
	C344.248993,396.000275 341.929474,396.219025 339.667725,395.950684
	C335.971405,395.512207 334.190399,397.554047 334.107971,400.658478
	C333.870575,409.601074 334.024170,418.554108 334.024170,428.432709
	C343.679871,427.957062 353.133301,428.700714 361.977570,426.721710
	C371.152557,424.668671 373.834503,418.243439 373.010529,408.510376
	C372.494019,402.409271 367.079620,396.968475 359.779449,396.102417
	C356.339722,395.694336 355.490021,394.394440 356.393677,391.177094
	C371.740906,391.177094 387.022491,391.177094 402.693634,391.177094
	C402.792145,392.631592 402.885590,394.011932 402.999756,395.697479
	C401.764771,395.816010 400.818054,395.968536 399.868622,395.987946
	C393.811432,396.111755 392.055023,397.872070 392.006226,404.012207
	C391.973145,408.175598 391.999939,412.339478 391.999939,417.002563
z"/>
<path fill="none" opacity="1.000000" stroke="none"
	d="
M295.183624,710.327209
	C302.214813,701.671143 311.215851,707.352295 312.740692,714.222351
	C313.778839,718.899658 313.423676,724.244995 312.266083,728.940186
	C311.295593,732.876831 307.907562,735.874512 303.171082,735.986206
	C298.139160,736.104919 295.196136,732.798401 293.506836,728.834473
	C290.891876,722.698303 291.096771,716.422668 295.183624,710.327209
z"/>
<path fill="none" opacity="1.000000" stroke="none"
	d="
M411.353882,731.116089
	C408.274597,734.769775 404.864044,737.375671 400.359589,735.640808
	C394.650879,733.442139 392.367859,728.022766 392.275024,722.653870
	C392.200867,718.365967 393.668579,713.488464 395.982697,709.844971
	C400.196503,703.210510 409.518768,705.285706 412.659943,713.270142
	C414.994904,719.205383 414.571533,725.138977 411.353882,731.116089
z"/>
<path fill="none" opacity="1.000000" stroke="none"
	d="
M512.551758,340.977936
	C510.385803,320.187012 508.636322,299.411407 506.894287,277.775146
	C507.267853,271.190857 507.594666,265.464325 508.017944,259.744934
	C508.207062,257.190155 508.590057,254.649704 508.885101,252.102768
	C513.127441,271.100891 528.047424,276.711334 542.178833,272.878876
	C549.470215,270.901489 553.355042,265.502625 555.714844,258.820435
	C557.450684,253.905304 559.713623,249.920364 563.701233,245.950089
	C573.988525,235.707474 571.500305,219.984253 561.000916,213.714706
	C556.667114,211.126846 552.052429,209.009323 547.311646,206.545990
	C553.466858,201.659821 560.941528,197.636505 563.661804,188.886917
	C582.296936,206.342072 598.546326,225.556015 609.434692,248.856461
	C615.204773,261.204010 618.097656,273.970245 614.956238,287.469910
	C612.064636,299.895874 604.272156,308.970123 593.923157,316.006134
	C577.154419,327.406738 558.170410,333.062439 538.573853,336.940399
	C530.102966,338.616669 521.507202,339.661560 512.551758,340.977936
z"/>
<path fill="#13A207" opacity="1.000000" stroke="none"
	d="
M508.852356,251.706726
	C508.590057,254.649704 508.207062,257.190155 508.017944,259.744934
	C507.594666,265.464325 507.267853,271.190857 506.845764,277.328766
	C499.454498,276.195923 492.119232,274.648804 484.406006,273.002594
	C488.970062,258.680786 494.960266,244.998123 504.633209,232.105606
	C506.168610,239.149124 507.494110,245.229889 508.852356,251.706726
z"/>
<path fill="#153012" opacity="1.000000" stroke="none"
	d="
M306.715454,263.734528
	C306.608276,263.442566 306.589661,263.145081 307.242523,262.588928
	C315.961334,262.028290 324.101196,261.382050 332.232147,261.479156
	C353.484283,261.732971 374.732513,262.311890 395.982300,262.761169
	C396.023926,287.600830 396.065582,312.440491 395.538635,337.747253
	C389.009918,337.880951 383.047424,337.227539 377.089966,337.270599
	C353.703400,337.439606 330.318359,337.828125 306.932770,338.135071
	C306.932770,329.694275 306.932770,321.253479 306.932770,312.060364
	C313.379059,312.060364 319.792053,312.070892 326.204987,312.057556
	C333.550446,312.042267 335.901215,309.656799 336.003784,302.155426
	C336.155365,291.066040 334.182495,289.068726 323.117035,289.052032
	C317.965759,289.044250 312.814545,288.997650 307.300415,288.335083
	C306.863464,279.712494 306.789459,271.723511 306.715454,263.734528
z"/>
<path fill="#1D9E07" opacity="1.000000" stroke="none"
	d="
M306.903564,338.497131
	C330.318359,337.828125 353.703400,337.439606 377.089966,337.270599
	C383.047424,337.227539 389.009918,337.880951 395.425415,338.218140
	C395.355316,343.314545 391.949768,345.537811 387.416016,345.566284
	C363.472321,345.716766 339.526917,345.697693 315.582855,345.581909
	C311.238800,345.560913 307.992645,343.411133 306.903564,338.497131
z"/>
<path fill="#1A9F07" opacity="1.000000" stroke="none"
	d="
M396.064758,262.391968
	C374.732513,262.311890 353.484283,261.732971 332.232147,261.479156
	C324.101196,261.382050 315.961334,262.028290 307.345947,262.388000
	C307.241028,256.419952 309.958130,253.263367 316.236816,253.209305
	C339.724030,253.007034 363.214813,253.021118 386.702393,253.200287
	C392.674072,253.245850 395.178894,256.025940 396.064758,262.391968
z"/>
<path fill="#1A9F07" opacity="1.000000" stroke="none"
	d="
M306.581177,264.138092
	C306.789459,271.723511 306.863464,279.712494 306.857666,288.129089
	C306.667511,280.551666 306.557190,272.546661 306.581177,264.138092
z"/>
</svg>
